<svg width="125" height="125" viewBox="0 0 125 125" fill="none" xmlns="http://www.w3.org/2000/svg">
<path d="M62.5 125C54.0606 125 45.8845 123.343 38.1694 120.083C30.7287 116.934 24.0452 112.434 18.3055 106.694C12.5658 100.955 8.06629 94.2713 4.91659 86.8306C1.65716 79.1155 0 70.9284 0 62.5C0 54.0716 1.65716 45.8736 4.91659 38.1694C8.06629 30.7287 12.5658 24.0452 18.3055 18.3055C24.0452 12.5658 30.7287 8.06629 38.1694 4.91659C45.8736 1.65716 54.0606 0 62.5 0C70.9394 0 79.1155 1.65716 86.8306 4.91659C94.2713 8.06629 100.955 12.5658 106.694 18.3055C112.434 24.0452 116.934 30.7287 120.083 38.1694C123.343 45.8736 125 54.0606 125 62.5C125 70.9394 123.343 79.1155 120.083 86.8306C116.934 94.2713 112.434 100.955 106.694 106.694C100.955 112.434 94.2713 116.934 86.8306 120.083C79.1155 123.343 70.9284 125 62.5 125ZM62.5 6.80421C31.7932 6.80421 6.80421 31.7932 6.80421 62.5C6.80421 93.2068 31.7932 118.196 62.5 118.196C93.2068 118.196 118.196 93.2068 118.196 62.5C118.196 31.7932 93.2068 6.80421 62.5 6.80421Z" fill="black"/>
<path d="M56.7054 42.9982V32.2761H68.2946V42.9982H56.7054ZM56.7054 92.7129V48.9355H68.2946V92.7129H56.7054Z" fill="black"/>
</svg>
