<svg width="125" height="125" viewBox="0 0 125 125" fill="none" xmlns="http://www.w3.org/2000/svg">
<g clip-path="url(#clip0_2_287)">
<path d="M62.5 125C54.0606 125 45.8845 123.343 38.1694 120.083C30.7287 116.934 24.0452 112.434 18.3055 106.694C12.5658 100.955 8.06629 94.2713 4.91659 86.8306C1.65716 79.1155 0 70.9284 0 62.5C0 54.0606 1.65716 45.8736 4.91659 38.1694C8.06629 30.7287 12.5658 24.0452 18.3055 18.3055C24.0452 12.5658 30.7287 8.06629 38.1694 4.91659C45.8736 1.65716 54.0606 0 62.5 0C70.9394 0 79.1155 1.65716 86.8306 4.91659C94.2713 8.06629 100.955 12.5658 106.694 18.3055C112.434 24.0452 116.934 30.7287 120.083 38.1694C123.343 45.8736 125 54.0606 125 62.5C125 70.9394 123.343 79.1155 120.083 86.8306C116.934 94.2713 112.434 100.955 106.694 106.694C100.955 112.434 94.2713 116.934 86.8306 120.083C79.1155 123.343 70.9284 125 62.5 125ZM62.5 6.80421C31.7932 6.80421 6.80421 31.7932 6.80421 62.5C6.80421 93.2068 31.7932 118.196 62.5 118.196C93.2068 118.196 118.196 93.2068 118.196 62.5C118.196 31.7932 93.2068 6.80421 62.5 6.80421Z" fill="black"/>
<path d="M48.3648 88.8938C48.3099 88.8938 48.2441 88.8938 48.1892 88.8938C47.1576 88.8389 46.2028 88.3231 45.5992 87.4781L31.0689 67.1752C29.9714 65.6497 30.3226 63.5207 31.8591 62.4232C33.3845 61.3258 35.5136 61.6769 36.611 63.2134L48.6501 80.0373L88.6194 34.943C89.8705 33.5382 92.0105 33.4065 93.4262 34.6576C94.8419 35.9087 94.9627 38.0488 93.7116 39.4645L50.9218 87.7524C50.2634 88.4768 49.3305 88.8938 48.3648 88.8938Z" fill="black"/>
<path d="M62.5 27.568C60.6234 27.568 59.0979 26.0426 59.0979 24.1659V12.6536C59.0979 10.777 60.6234 9.25153 62.5 9.25153C64.3767 9.25153 65.9021 10.777 65.9021 12.6536V24.1659C65.9021 26.0426 64.3767 27.568 62.5 27.568Z" fill="black"/>
<path d="M62.5 113.608C60.6234 113.608 59.0979 112.083 59.0979 110.206V98.694C59.0979 96.8174 60.6234 95.2919 62.5 95.2919C64.3767 95.2919 65.9021 96.8174 65.9021 98.694V110.206C65.9021 112.083 64.3767 113.608 62.5 113.608Z" fill="black"/>
<path d="M62.5 27.568C60.6234 27.568 59.0979 26.0426 59.0979 24.1659V12.6536C59.0979 10.777 60.6234 9.25153 62.5 9.25153C64.3767 9.25153 65.9021 10.777 65.9021 12.6536V24.1659C65.9021 26.0426 64.3767 27.568 62.5 27.568Z" fill="black"/>
<path d="M62.5 113.608C60.6234 113.608 59.0979 112.083 59.0979 110.206V98.694C59.0979 96.8174 60.6234 95.2919 62.5 95.2919C64.3767 95.2919 65.9021 96.8174 65.9021 98.694V110.206C65.9021 112.083 64.3767 113.608 62.5 113.608Z" fill="black"/>
</g>
<defs>
<clipPath id="clip0_2_287">
<rect width="125" height="125" fill="white"/>
</clipPath>
</defs>
</svg>
