<svg width="125" height="125" viewBox="0 0 125 125" fill="none" xmlns="http://www.w3.org/2000/svg">
<path d="M120.083 38.1694C116.934 30.7287 112.434 24.0452 106.694 18.3055C100.955 12.5658 94.2713 8.06629 86.8306 4.91659C79.1155 1.65716 70.9284 0 62.5 0C54.0716 0 45.8736 1.65716 38.1694 4.91659C30.7287 8.06629 24.0452 12.5658 18.3055 18.3055C12.5658 24.0452 8.06629 30.7287 4.91659 38.1694C1.65716 45.8736 0 54.0606 0 62.5C0 70.9394 1.65716 79.1155 4.91659 86.8306C8.06629 94.2713 12.5658 100.955 18.3055 106.694C24.0452 112.434 30.7287 116.934 38.1694 120.083C45.8736 123.343 54.0606 125 62.5 125C70.9394 125 79.1155 123.343 86.8306 120.083C94.2713 116.934 100.955 112.434 106.694 106.694C112.434 100.955 116.934 94.2713 120.083 86.8306C123.343 79.1264 125 70.9394 125 62.5C125 54.0606 123.343 45.8736 120.083 38.1694ZM62.5 118.196C31.7932 118.196 6.80421 93.2068 6.80421 62.5C6.80421 31.7932 31.7932 6.80421 62.5 6.80421C93.2068 6.80421 118.196 31.7932 118.196 62.5C118.196 93.2068 93.2068 118.196 62.5 118.196Z" fill="black"/>
<path d="M101.866 44.9737C101.866 44.9627 101.866 44.9517 101.866 44.9407C101.866 44.8968 101.855 44.8639 101.855 44.82C101.855 44.7981 101.855 44.7871 101.855 44.7651C101.855 44.7432 101.844 44.7103 101.844 44.6883C101.844 44.6554 101.833 44.6225 101.833 44.5895C101.833 44.5786 101.833 44.5786 101.833 44.5676C101.767 44.1396 101.613 43.7445 101.405 43.3823C101.405 43.3714 101.394 43.3714 101.394 43.3604C101.383 43.3494 101.372 43.3275 101.372 43.3165C101.163 42.9763 100.878 42.669 100.549 42.4166C100.538 42.4056 100.527 42.4056 100.516 42.3946C100.494 42.3727 100.472 42.3617 100.45 42.3507C100.428 42.3288 100.395 42.3178 100.373 42.2959C100.362 42.2849 100.351 42.2739 100.329 42.2739C100.296 42.252 100.252 42.23 100.22 42.2081C100.209 42.2081 100.209 42.1971 100.198 42.1971C100.154 42.1751 100.11 42.1422 100.066 42.1203L62.2147 22.3222C61.1831 21.7844 59.9429 21.8064 58.9333 22.399L24.8134 42.1861C24.8134 42.1861 24.8025 42.1861 24.8025 42.1971C24.7695 42.219 24.7256 42.241 24.6927 42.2629C24.6817 42.2739 24.6708 42.2849 24.6488 42.2849C24.6159 42.3068 24.594 42.3288 24.561 42.3398C24.5391 42.3507 24.5171 42.3727 24.5062 42.3837C24.4842 42.3946 24.4732 42.4166 24.4513 42.4276C24.4184 42.4495 24.3964 42.4715 24.3745 42.4934C24.3635 42.5044 24.3525 42.5044 24.3525 42.5154C24.0562 42.7568 23.8148 43.0421 23.6282 43.3604C23.6172 43.3823 23.5953 43.4043 23.5843 43.4372C23.5733 43.4592 23.5623 43.4811 23.5514 43.5031C23.3758 43.8213 23.2551 44.1835 23.1892 44.5566C23.1892 44.5676 23.1892 44.5786 23.1782 44.5895C23.1673 44.6225 23.1673 44.6554 23.1673 44.6993C23.1673 44.7212 23.1563 44.7432 23.1563 44.7651C23.1563 44.7871 23.1563 44.809 23.1453 44.842C23.1453 44.8749 23.1343 44.9078 23.1343 44.9517C23.1343 44.9627 23.1343 44.9846 23.1343 44.9956C23.1343 45.0395 23.1343 45.0834 23.1343 45.1273V45.1383V93.9091C23.1343 95.7858 24.6598 97.3112 26.5364 97.3112H53.885H71.115H98.4636C100.34 97.3112 101.866 95.7858 101.866 93.9091V45.1383C101.877 45.0834 101.877 45.0285 101.866 44.9737ZM60.7221 29.2142L84.6357 41.7252H39.1681L60.7221 29.2142ZM57.2761 90.507V69.3262H67.7129V90.507H57.2761ZM95.0724 90.507H85.6673V61.7427C85.6673 59.8661 84.1418 58.3406 82.2652 58.3406C80.3885 58.3406 78.863 59.8661 78.863 61.7427V90.507H74.5171V65.924C74.5171 64.0474 72.9917 62.5219 71.115 62.5219H53.874C51.9974 62.5219 50.4719 64.0474 50.4719 65.924V90.507H46.126V61.7427C46.126 59.8661 44.6005 58.3406 42.7239 58.3406C40.8472 58.3406 39.3218 59.8661 39.3218 61.7427V90.507H29.9166V48.5404H95.0615V90.507H95.0724Z" fill="black"/>
</svg>
