<svg width="95" height="82" viewBox="0 0 95 82" fill="none" xmlns="http://www.w3.org/2000/svg">
<g clip-path="url(#clip0_4_629)">
<path d="M21.5779 54.2834V38.6531H17.1008L12.7567 49.4756L8.36502 38.6531H3.85931V54.2834H7.6711V44.8862L11.1882 54.2834H14.2681L17.7662 44.9052V54.2834H21.5779Z" fill="black"/>
<path d="M26.2357 35.128V37.7599L31.597 35.508V32.553L26.2357 35.128Z" fill="black"/>
<path d="M33.8974 41.7031V38.6531H24.3156V54.2834H33.8974V51.2334H28.1274V47.8033H33.2225V44.8672H28.1274V41.7031H33.8974Z" fill="black"/>
<path d="M45.8555 38.6531L43.0989 43.3754L39.9525 38.6531H35.5228L40.6464 46.3305L35.6369 54.2834H39.9525L42.7662 49.4946L45.9506 54.2834H50.3802L45.2091 46.53L50.1806 38.6531H45.8555Z" fill="black"/>
<path d="M56.1122 38.6531H52.3004V54.2834H56.1122V38.6531Z" fill="black"/>
<path d="M66.0932 54.3975C67.9468 54.3975 69.5342 53.9129 70.865 52.9343C72.1863 51.9651 73.0703 50.6253 73.5171 48.934H69.3251C69.0114 49.5896 68.5741 50.0837 68.0038 50.4258C67.4335 50.7679 66.7776 50.9389 66.0551 50.9389C64.8859 50.9389 63.9354 50.5303 63.2034 49.7132C62.4715 48.896 62.1103 47.8033 62.1103 46.4351C62.1103 45.0668 62.4715 43.9741 63.2034 43.157C63.9354 42.3398 64.8859 41.9312 66.0551 41.9312C66.7871 41.9312 67.4335 42.1023 68.0038 42.4443C68.5741 42.7864 69.0209 43.2805 69.3251 43.9361H73.5171C73.0703 42.2448 72.1863 40.9051 70.865 39.9264C69.5437 38.9477 67.9563 38.4536 66.0932 38.4536C64.5817 38.4536 63.2224 38.7957 62.0247 39.4703C60.827 40.1449 59.8954 41.0856 59.23 42.3018C58.5646 43.5085 58.2319 44.8863 58.2319 46.4351C58.2319 47.9839 58.5646 49.3521 59.23 50.5588C59.8954 51.7655 60.827 52.6967 62.0247 53.3713C63.2224 54.0555 64.5722 54.3975 66.0932 54.3975Z" fill="black"/>
<path d="M79.2015 53.4188C80.4278 54.1029 81.7776 54.445 83.2415 54.445C84.7053 54.445 86.0551 54.1029 87.2719 53.4188C88.4886 52.7347 89.4582 51.7845 90.1711 50.5588C90.884 49.333 91.2453 47.9553 91.2453 46.4255C91.2453 44.8957 90.8935 43.5275 90.1901 42.3018C89.4867 41.0855 88.5171 40.1354 87.2909 39.4512C86.0646 38.7671 84.7148 38.425 83.251 38.425C81.7871 38.425 80.4373 38.7671 79.211 39.4512C77.9848 40.1354 77.0152 41.0855 76.2928 42.3018C75.5704 43.518 75.2091 44.8957 75.2091 46.4255C75.2091 47.9553 75.5704 49.333 76.2928 50.5588C77.0057 51.775 77.9753 52.7347 79.2015 53.4188ZM80.2281 43.1094C80.9791 42.2923 81.9867 41.8837 83.251 41.8837C84.4962 41.8837 85.4943 42.2923 86.2453 43.1189C86.9962 43.9456 87.3669 45.0478 87.3669 46.4255C87.3669 47.7938 86.9962 48.8865 86.2453 49.7226C85.4943 50.5588 84.4962 50.9673 83.251 50.9673C81.9867 50.9673 80.9791 50.5588 80.2281 49.7321C79.4772 48.9055 79.1065 47.8033 79.1065 46.4255C79.097 45.0288 79.4772 43.9171 80.2281 43.1094Z" fill="black"/>
<path d="M14.5532 74.6551H18.9734L12.7662 57.5139H7.93727L1.73004 74.6551H6.10266L7.12928 71.624H13.5266L14.5532 74.6551ZM8.23194 68.4029L10.3327 62.1223L12.462 68.4029H8.23194Z" fill="black"/>
<path d="M30.5133 71.434H25.038V57.5139H20.865V74.6551H30.5133V71.434Z" fill="black"/>
<path d="M43.0228 71.3104H36.692V67.5478H42.2909V64.3267H36.692V60.8585H43.0228V57.5139H32.519V74.6551H43.0228V71.3104Z" fill="black"/>
<path d="M49.9145 68.1844H50.9126L54.4772 74.6551H59.192L55.2376 67.8613C56.4924 67.4907 57.443 66.8541 58.0799 65.961C58.7262 65.0678 59.0494 64.0511 59.0494 62.9109C59.0494 61.9037 58.8118 60.9821 58.3365 60.1649C57.8612 59.3383 57.1483 58.6921 56.1977 58.2265C55.2472 57.7515 54.097 57.5139 52.7376 57.5139H45.7224V74.6551H49.905V68.1844H49.9145ZM49.9145 60.9821H52.5C53.27 60.9821 53.8403 61.1721 54.2205 61.5427C54.6008 61.9132 54.7909 62.4263 54.7909 63.0819C54.7909 63.7661 54.6008 64.2982 54.2205 64.6687C53.8403 65.0393 53.2605 65.2293 52.5 65.2293H49.9145V60.9821Z" fill="black"/>
<path d="M74.0019 57.5139H60.732V60.8585H65.2757V74.6551H69.4582V60.8585H74.0019V57.5139Z" fill="black"/>
<path d="M81.1787 57.5139L74.9715 74.6551H79.3441L80.3707 71.624H86.7681L87.7947 74.6551H92.2148L86.0076 57.5139H81.1787ZM81.4734 68.4029L83.5742 62.1223L85.7034 68.4029H81.4734Z" fill="black"/>
<path d="M2.28137 77.6101L1.12167 80.8027H1.56844L1.8251 80.0901H3.22243L3.47909 80.8027H3.92586L2.76616 77.6101H2.28137ZM1.93916 79.748L2.51901 78.1232L3.09886 79.748H1.93916Z" fill="black"/>
<path d="M6.40686 78.3988C6.22625 78.2943 6.01713 78.2373 5.79849 78.2373C5.57986 78.2373 5.38975 78.2848 5.22815 78.3798C5.06655 78.4748 4.94298 78.5984 4.85743 78.7409V78.2753H4.43918V82H4.84792V80.3372C4.93347 80.4797 5.05705 80.6032 5.22815 80.6983C5.38975 80.7933 5.57986 80.8408 5.79849 80.8408C6.02663 80.8408 6.22625 80.7838 6.40686 80.6792C6.58747 80.5652 6.73005 80.4132 6.83462 80.2137C6.93918 80.0141 6.98671 79.7861 6.98671 79.5295C6.98671 79.273 6.93918 79.0449 6.83462 78.8454C6.73005 78.6554 6.58747 78.5033 6.40686 78.3988ZM6.45439 80.0331C6.37834 80.1757 6.27378 80.2897 6.1407 80.3562C6.00762 80.4322 5.86503 80.4702 5.71294 80.4702C5.56085 80.4702 5.41827 80.4322 5.28519 80.3562C5.15211 80.2802 5.04754 80.1757 4.9715 80.0331C4.89545 79.8906 4.85743 79.7196 4.85743 79.5295C4.85743 79.3395 4.89545 79.178 4.9715 79.0354C5.04754 78.8929 5.15211 78.7789 5.28519 78.7124C5.41827 78.6364 5.56085 78.5984 5.71294 78.5984C5.86503 78.5984 6.01712 78.6364 6.1407 78.7124C6.27378 78.7884 6.37834 78.8929 6.45439 79.0354C6.53043 79.178 6.56846 79.3395 6.56846 79.5295C6.56846 79.7291 6.53043 79.8906 6.45439 80.0331Z" fill="black"/>
<path d="M9.52472 78.3988C9.34411 78.2943 9.13498 78.2373 8.91635 78.2373C8.69772 78.2373 8.50761 78.2848 8.34601 78.3798C8.18441 78.4748 8.06084 78.5984 7.97529 78.7409V78.2753H7.55704V82H7.97529V80.3372C8.06084 80.4797 8.18441 80.6032 8.35552 80.6983C8.51711 80.7933 8.70723 80.8408 8.92586 80.8408C9.154 80.8408 9.35362 80.7838 9.53422 80.6792C9.71483 80.5652 9.85742 80.4132 9.96198 80.2137C10.0665 80.0141 10.1141 79.7861 10.1141 79.5295C10.1141 79.273 10.0665 79.0449 9.96198 78.8454C9.84791 78.6554 9.70533 78.5033 9.52472 78.3988ZM9.56274 80.0331C9.48669 80.1757 9.38213 80.2897 9.24905 80.3562C9.11597 80.4322 8.97339 80.4702 8.8213 80.4702C8.6692 80.4702 8.52662 80.4322 8.39354 80.3562C8.26046 80.2802 8.1559 80.1757 8.07985 80.0331C8.00381 79.8906 7.96578 79.7196 7.96578 79.5295C7.96578 79.3395 8.00381 79.178 8.07985 79.0354C8.1559 78.8929 8.26046 78.7789 8.39354 78.7124C8.52662 78.6364 8.6692 78.5984 8.8213 78.5984C8.97339 78.5984 9.12548 78.6364 9.24905 78.7124C9.38213 78.7884 9.48669 78.8929 9.56274 79.0354C9.63879 79.178 9.67681 79.3395 9.67681 79.5295C9.68632 79.7291 9.64829 79.8906 9.56274 80.0331Z" fill="black"/>
<path d="M12.1103 77.2966C12.0342 77.2966 11.9582 77.3251 11.9107 77.3821C11.8536 77.4392 11.8251 77.5057 11.8251 77.5817C11.8251 77.6577 11.8536 77.7337 11.9107 77.7812C11.9677 77.8382 12.0342 77.8667 12.1103 77.8667C12.1863 77.8667 12.2529 77.8382 12.3099 77.7812C12.3669 77.7242 12.3859 77.6577 12.3859 77.5817C12.3859 77.5057 12.3574 77.4297 12.3099 77.3821C12.2529 77.3251 12.1863 77.2966 12.1103 77.2966Z" fill="black"/>
<path d="M12.3099 78.2754H11.8917V80.8029H12.3099V78.2754Z" fill="black"/>
<path d="M14.2586 78.2278C14.0875 78.2278 13.9259 78.2658 13.7833 78.3323C13.6407 78.3988 13.5266 78.5033 13.4411 78.6364V78.2753H13.0228V80.8028H13.4411V79.406C13.4411 79.14 13.5076 78.9404 13.6407 78.7979C13.7738 78.6554 13.9449 78.5888 14.173 78.5888C14.3916 78.5888 14.5628 78.6554 14.6863 78.7884C14.8099 78.9214 14.8764 79.1114 14.8764 79.368V80.7933H15.2947V79.3015C15.2947 78.9499 15.1996 78.6839 15.0095 78.4938C14.8194 78.3228 14.5723 78.2278 14.2586 78.2278Z" fill="black"/>
<path d="M16.4734 78.0947C16.4734 77.9332 16.5114 77.8097 16.5875 77.7337C16.6635 77.6577 16.7966 77.6292 16.9772 77.6292V77.2776C16.654 77.2776 16.4164 77.3441 16.2738 77.4771C16.1312 77.6102 16.0552 77.8097 16.0552 78.0947V78.2753H15.732V78.6173H16.0552V80.7932H16.4734V78.6173H17.0057V78.2753H16.4734V78.0947Z" fill="black"/>
<path d="M19.2681 78.3988C19.078 78.2943 18.8593 78.2373 18.6217 78.2373C18.3841 78.2373 18.1654 78.2943 17.9753 78.3988C17.7852 78.5033 17.6331 78.6554 17.519 78.8549C17.405 79.0545 17.3479 79.2825 17.3479 79.539C17.3479 79.7956 17.405 80.0331 17.5095 80.2327C17.6141 80.4322 17.7662 80.5842 17.9658 80.6888C18.1559 80.7933 18.3745 80.8503 18.6122 80.8503C18.8498 80.8503 19.0685 80.7933 19.2681 80.6888C19.4677 80.5842 19.6198 80.4322 19.7339 80.2327C19.8479 80.0331 19.905 79.8051 19.905 79.539C19.905 79.2825 19.8479 79.045 19.7339 78.8549C19.6103 78.6554 19.4582 78.5033 19.2681 78.3988ZM19.3441 80.0521C19.2586 80.1947 19.154 80.2992 19.0209 80.3657C18.8879 80.4322 18.7453 80.4702 18.5932 80.4702C18.4411 80.4702 18.308 80.4322 18.1749 80.3657C18.0514 80.2992 17.9468 80.1947 17.8707 80.0521C17.7947 79.9096 17.7567 79.7386 17.7567 79.5295C17.7567 79.33 17.7947 79.159 17.8707 79.0164C17.9468 78.8739 18.0514 78.7694 18.1749 78.7029C18.2985 78.6364 18.4411 78.5984 18.5932 78.5984C18.7453 78.5984 18.8879 78.6364 19.0114 78.7029C19.1445 78.7694 19.2491 78.8739 19.3251 79.0164C19.4012 79.159 19.4487 79.33 19.4487 79.5295C19.4487 79.7291 19.4202 79.9096 19.3441 80.0521Z" fill="black"/>
<path d="M20.865 78.6839V78.2753H20.4468V80.8028H20.865V79.4345C20.865 78.9214 21.1027 78.6649 21.5684 78.6649H21.6825V78.2278C21.4829 78.2278 21.3213 78.2658 21.1787 78.3513C21.0456 78.4273 20.9411 78.5413 20.865 78.6839Z" fill="black"/>
<path d="M25.732 78.3513C25.5799 78.2658 25.3993 78.2278 25.2091 78.2278C25.0095 78.2278 24.8289 78.2753 24.6673 78.3798C24.5057 78.4843 24.3916 78.6174 24.3156 78.7979C24.2396 78.6174 24.116 78.4748 23.9544 78.3798C23.7928 78.2848 23.6027 78.2373 23.3935 78.2373C23.2224 78.2373 23.0704 78.2753 22.9278 78.3418C22.7852 78.4083 22.6806 78.5128 22.5951 78.6459V78.2848H22.1768V80.8123H22.5951V79.425C22.5951 79.159 22.6616 78.9594 22.7852 78.8169C22.9183 78.6744 23.0894 78.6079 23.308 78.6079C23.5171 78.6079 23.6882 78.6744 23.8118 78.8074C23.9354 78.9404 24.0019 79.1304 24.0019 79.387V80.8123H24.4202V79.425C24.4202 79.159 24.4867 78.9594 24.6103 78.8169C24.7434 78.6744 24.9145 78.6079 25.1331 78.6079C25.3422 78.6079 25.5133 78.6744 25.6369 78.8074C25.7605 78.9404 25.827 79.1304 25.827 79.387V80.8123H26.2453V79.3205C26.2453 79.0829 26.1977 78.8929 26.1122 78.7219C26.0076 78.5603 25.884 78.4368 25.732 78.3513Z" fill="black"/>
<path d="M28.8973 78.7409C28.8213 78.5984 28.6977 78.4748 28.5361 78.3798C28.3745 78.2848 28.1844 78.2373 27.9563 78.2373C27.7281 78.2373 27.5285 78.2943 27.3479 78.3988C27.1673 78.5033 27.0247 78.6554 26.9202 78.8549C26.8156 79.0545 26.7681 79.273 26.7681 79.539C26.7681 79.7956 26.8156 80.0236 26.9202 80.2232C27.0247 80.4227 27.1673 80.5747 27.3479 80.6888C27.5285 80.8028 27.7281 80.8503 27.9563 80.8503C28.1749 80.8503 28.365 80.8028 28.5266 80.7078C28.6882 80.6127 28.8118 80.4892 28.8973 80.3372V80.8028H29.3251V78.2753H28.8973V78.7409ZM28.7833 80.0331C28.7072 80.1757 28.6027 80.2897 28.4696 80.3562C28.3365 80.4322 28.1939 80.4702 28.0418 80.4702C27.8897 80.4702 27.7376 80.4322 27.6141 80.3562C27.481 80.2802 27.3859 80.1757 27.3004 80.0331C27.2243 79.8906 27.1863 79.7196 27.1863 79.5295C27.1863 79.3395 27.2243 79.1685 27.3004 79.0354C27.3764 78.8929 27.481 78.7884 27.6141 78.7124C27.7472 78.6364 27.8897 78.5984 28.0418 78.5984C28.1939 78.5984 28.346 78.6364 28.4696 78.7124C28.6027 78.7884 28.7072 78.8929 28.7833 79.0354C28.8593 79.178 28.8973 79.3395 28.8973 79.5295C28.8973 79.7291 28.8593 79.8906 28.7833 80.0331Z" fill="black"/>
<path d="M30.5418 77.6387H30.1236V78.2753H29.8004V78.6174H30.1236V80.1091C30.1236 80.3562 30.1806 80.5272 30.2947 80.6412C30.4088 80.7457 30.5894 80.8028 30.8175 80.8028H31.1977V80.4512H30.8935C30.7605 80.4512 30.6749 80.4227 30.6179 80.3752C30.5703 80.3277 30.5418 80.2422 30.5418 80.1186V78.6269H31.1977V78.2848H30.5418V77.6387Z" fill="black"/>
<path d="M31.9297 77.2966C31.8536 77.2966 31.7776 77.3251 31.7301 77.3821C31.673 77.4392 31.6445 77.5057 31.6445 77.5817C31.6445 77.6577 31.673 77.7337 31.7301 77.7812C31.7871 77.8382 31.8536 77.8667 31.9297 77.8667C32.0057 77.8667 32.0723 77.8382 32.1293 77.7812C32.1863 77.7242 32.2053 77.6577 32.2053 77.5817C32.2053 77.5057 32.1768 77.4297 32.1293 77.3821C32.0723 77.3251 32.0057 77.2966 31.9297 77.2966Z" fill="black"/>
<path d="M32.1293 78.2754H31.711V80.8029H32.1293V78.2754Z" fill="black"/>
<path d="M33.7833 80.4133L32.9943 78.2754H32.5475L33.5361 80.8029H34.0209L35.019 78.2754H34.5723L33.7833 80.4133Z" fill="black"/>
<path d="M37.4145 78.7409C37.3384 78.5984 37.2148 78.4748 37.0532 78.3798C36.8916 78.2848 36.7015 78.2373 36.4734 78.2373C36.2453 78.2373 36.0456 78.2943 35.865 78.3988C35.6844 78.5033 35.5418 78.6554 35.4373 78.8549C35.3327 79.0545 35.2852 79.273 35.2852 79.539C35.2852 79.7956 35.3327 80.0236 35.4373 80.2232C35.5418 80.4227 35.6844 80.5747 35.865 80.6888C36.0456 80.8028 36.2453 80.8503 36.4734 80.8503C36.692 80.8503 36.8821 80.8028 37.0437 80.7078C37.2053 80.6127 37.3289 80.4892 37.4145 80.3372V80.8028H37.8422V78.2753H37.4145V78.7409ZM37.3004 80.0331C37.2243 80.1757 37.1198 80.2897 36.9867 80.3562C36.8536 80.4322 36.711 80.4702 36.559 80.4702C36.4069 80.4702 36.2548 80.4322 36.1312 80.3562C35.9981 80.2802 35.9031 80.1757 35.8175 80.0331C35.7415 79.8906 35.7034 79.7196 35.7034 79.5295C35.7034 79.3395 35.7415 79.1685 35.8175 79.0354C35.8935 78.8929 35.9981 78.7884 36.1312 78.7124C36.2643 78.6364 36.4069 78.5984 36.559 78.5984C36.711 78.5984 36.8631 78.6364 36.9867 78.7124C37.1198 78.7884 37.2243 78.8929 37.3004 79.0354C37.3764 79.178 37.4145 79.3395 37.4145 79.5295C37.4145 79.7291 37.3764 79.8906 37.3004 80.0331Z" fill="black"/>
<path d="M41.5114 78.3893C41.3308 78.2848 41.1122 78.2373 40.8746 78.2373C40.6274 78.2373 40.4088 78.2943 40.2187 78.3988C40.0285 78.5033 39.886 78.6554 39.7814 78.8549C39.6768 79.0545 39.6293 79.2825 39.6293 79.539C39.6293 79.7956 39.6863 80.0331 39.7909 80.2327C39.8955 80.4322 40.0476 80.5842 40.2377 80.6888C40.4278 80.7933 40.6369 80.8503 40.8841 80.8503C41.1882 80.8503 41.4354 80.7743 41.6445 80.6222C41.8441 80.4702 41.9867 80.2707 42.0533 80.0331H41.597C41.5495 80.1757 41.4639 80.2897 41.3403 80.3752C41.2168 80.4607 41.0647 80.4987 40.8841 80.4987C40.6654 80.4987 40.4753 80.4322 40.3232 80.2897C40.1711 80.1472 40.0856 79.9571 40.0666 79.7101H42.0818C42.0913 79.6246 42.0913 79.539 42.0913 79.4535C42.0913 79.2255 42.0438 79.0164 41.9392 78.8359C41.8346 78.6459 41.692 78.4938 41.5114 78.3893ZM40.0571 79.3585C40.0761 79.121 40.1616 78.9309 40.3137 78.7979C40.4658 78.6649 40.6464 78.5984 40.8555 78.5984C41.0076 78.5984 41.1407 78.6269 41.2548 78.6839C41.3784 78.7409 41.4734 78.8359 41.5399 78.9499C41.6065 79.064 41.6445 79.2065 41.6445 79.3585H40.0571Z" fill="black"/>
<path d="M43.8688 78.2278C43.6977 78.2278 43.5361 78.2658 43.3935 78.3323C43.251 78.3988 43.1369 78.5033 43.0513 78.6364V78.2753H42.6331V80.8028H43.0513V79.406C43.0513 79.14 43.1179 78.9404 43.251 78.7979C43.384 78.6554 43.5551 78.5888 43.7833 78.5888C44.0019 78.5888 44.173 78.6554 44.2966 78.7884C44.4202 78.9214 44.4867 79.1114 44.4867 79.368V80.7933H44.9049V79.3015C44.9049 78.9499 44.8099 78.6839 44.6198 78.4938C44.4202 78.3228 44.173 78.2278 43.8688 78.2278Z" fill="black"/>
<path d="M48.8023 78.7314C48.7167 78.5793 48.5837 78.4653 48.4126 78.3703C48.2415 78.2753 48.0609 78.2373 47.8612 78.2373C47.6331 78.2373 47.424 78.2943 47.2434 78.3988C47.0628 78.5033 46.9202 78.6554 46.8156 78.8549C46.711 79.0544 46.6635 79.273 46.6635 79.539C46.6635 79.7956 46.711 80.0236 46.8156 80.2231C46.9202 80.4227 47.0628 80.5747 47.2434 80.6887C47.424 80.8027 47.6331 80.8503 47.8517 80.8503C48.0704 80.8503 48.2605 80.8027 48.4221 80.7077C48.5837 80.6127 48.7072 80.4892 48.7928 80.3372V80.8122H49.2205V77.4011H48.7928V78.7314H48.8023ZM48.6882 80.0331C48.6122 80.1756 48.5076 80.2897 48.3745 80.3562C48.2415 80.4322 48.0989 80.4702 47.9468 80.4702C47.7947 80.4702 47.6426 80.4322 47.519 80.3562C47.3859 80.2802 47.2909 80.1756 47.2053 80.0331C47.1293 79.8906 47.0913 79.7195 47.0913 79.5295C47.0913 79.3395 47.1293 79.1684 47.2053 79.0354C47.2814 78.8929 47.3859 78.7884 47.519 78.7124C47.6521 78.6364 47.7947 78.5983 47.9468 78.5983C48.0989 78.5983 48.251 78.6364 48.3745 78.7124C48.5076 78.7884 48.6122 78.8929 48.6882 79.0354C48.7643 79.1779 48.8023 79.3395 48.8023 79.5295C48.8023 79.7291 48.7643 79.8906 48.6882 80.0331Z" fill="black"/>
<path d="M51.6635 78.3893C51.4829 78.2848 51.2643 78.2373 51.0266 78.2373C50.7795 78.2373 50.5608 78.2943 50.3707 78.3988C50.1806 78.5033 50.038 78.6554 49.9335 78.8549C49.8289 79.0545 49.7814 79.2825 49.7814 79.539C49.7814 79.7956 49.8384 80.0331 49.943 80.2327C50.0475 80.4322 50.1996 80.5842 50.3897 80.6888C50.5798 80.7933 50.789 80.8503 51.0361 80.8503C51.3403 80.8503 51.5875 80.7743 51.7966 80.6222C51.9962 80.4702 52.1388 80.2707 52.2053 80.0331H51.7491C51.7015 80.1757 51.616 80.2897 51.4924 80.3752C51.3688 80.4607 51.2167 80.4987 51.0361 80.4987C50.8175 80.4987 50.6274 80.4322 50.4753 80.2897C50.3232 80.1472 50.2376 79.9571 50.2186 79.7101H52.2338C52.2433 79.6246 52.2433 79.539 52.2433 79.4535C52.2433 79.2255 52.1958 79.0164 52.0913 78.8359C51.9867 78.6459 51.8536 78.4938 51.6635 78.3893ZM50.2091 79.3585C50.2281 79.121 50.3137 78.9309 50.4658 78.7979C50.6179 78.6649 50.7985 78.5984 51.0076 78.5984C51.1597 78.5984 51.2928 78.6269 51.4068 78.6839C51.5304 78.7409 51.6255 78.8359 51.692 78.9499C51.7586 79.064 51.7966 79.2065 51.7966 79.3585H50.2091Z" fill="black"/>
<path d="M54.192 79.5295C54.078 79.482 53.9354 79.4345 53.7453 79.387C53.6027 79.349 53.4886 79.311 53.403 79.2825C53.3175 79.254 53.251 79.2065 53.2034 79.1495C53.1464 79.0925 53.1274 79.0259 53.1274 78.9404C53.1274 78.8359 53.1749 78.7504 53.2605 78.6839C53.346 78.6174 53.4696 78.5889 53.6217 78.5889C53.7833 78.5889 53.9164 78.6269 54.0114 78.7124C54.1065 78.7884 54.1635 78.9024 54.173 79.0259H54.5913C54.5818 78.7789 54.4867 78.5889 54.3156 78.4463C54.1445 78.3038 53.9164 78.2373 53.6407 78.2373C53.4601 78.2373 53.2985 78.2658 53.1559 78.3323C53.0133 78.3988 52.9088 78.4843 52.8327 78.5889C52.7567 78.6934 52.7186 78.8169 52.7186 78.9404C52.7186 79.102 52.7567 79.235 52.8422 79.33C52.9278 79.4345 53.0323 79.501 53.1464 79.558C53.2605 79.6056 53.4221 79.6626 53.6027 79.7101C53.8118 79.7671 53.9639 79.8146 54.0589 79.8716C54.154 79.9286 54.211 80.0046 54.211 80.1186C54.211 80.2232 54.1635 80.3182 54.0684 80.3847C53.9734 80.4512 53.8498 80.4892 53.6882 80.4892C53.5171 80.4892 53.3745 80.4512 53.27 80.3657C53.1654 80.2897 53.1084 80.1852 53.0894 80.0616H52.6521C52.6616 80.2137 52.7091 80.3467 52.8042 80.4702C52.8897 80.5842 53.0133 80.6792 53.1654 80.7458C53.3175 80.8123 53.4886 80.8408 53.6882 80.8408C53.8688 80.8408 54.0304 80.8123 54.173 80.7458C54.3156 80.6792 54.4202 80.5937 54.4962 80.4892C54.5722 80.3752 54.6103 80.2517 54.6103 80.1186C54.6103 79.9666 54.5627 79.8431 54.4867 79.7481C54.4011 79.6531 54.3061 79.577 54.192 79.5295Z" fill="black"/>
<path d="M57.1863 78.7409C57.1103 78.5984 56.9867 78.4748 56.8251 78.3798C56.6635 78.2848 56.4734 78.2373 56.2453 78.2373C56.0171 78.2373 55.8175 78.2943 55.6369 78.3988C55.4563 78.5033 55.3137 78.6554 55.2091 78.8549C55.1046 79.0545 55.057 79.273 55.057 79.539C55.057 79.7956 55.1046 80.0236 55.2091 80.2232C55.3137 80.4227 55.4563 80.5747 55.6369 80.6888C55.8175 80.8028 56.0171 80.8503 56.2453 80.8503C56.4639 80.8503 56.654 80.8028 56.8156 80.7078C56.9772 80.6127 57.1008 80.4892 57.1863 80.3372V80.8028H57.6141V78.2753H57.1863V78.7409ZM57.0722 80.0331C56.9962 80.1757 56.8916 80.2897 56.7586 80.3562C56.6255 80.4322 56.4829 80.4702 56.3308 80.4702C56.1787 80.4702 56.0266 80.4322 55.903 80.3562C55.77 80.2802 55.6749 80.1757 55.5989 80.0331C55.5228 79.8906 55.4848 79.7196 55.4848 79.5295C55.4848 79.3395 55.5228 79.1685 55.5989 79.0354C55.6749 78.8929 55.7795 78.7884 55.903 78.7124C56.0361 78.6364 56.1787 78.5984 56.3308 78.5984C56.4829 78.5984 56.635 78.6364 56.7586 78.7124C56.8916 78.7884 56.9962 78.8929 57.0722 79.0354C57.1483 79.178 57.1863 79.3395 57.1863 79.5295C57.1863 79.7291 57.1483 79.8906 57.0722 80.0331Z" fill="black"/>
<path d="M59.7149 79.5295C59.6008 79.482 59.4582 79.4345 59.2681 79.387C59.1255 79.349 59.0114 79.311 58.9259 79.2825C58.8403 79.254 58.7738 79.2065 58.7263 79.1495C58.6692 79.0925 58.6502 79.0259 58.6502 78.9404C58.6502 78.8359 58.6977 78.7504 58.7833 78.6839C58.8688 78.6174 58.9924 78.5889 59.1445 78.5889C59.3061 78.5889 59.4392 78.6269 59.5342 78.7124C59.6293 78.7884 59.6863 78.9024 59.6958 79.0259H60.1141C60.1046 78.7789 60.0095 78.5889 59.8384 78.4463C59.6673 78.3038 59.4392 78.2373 59.1635 78.2373C58.9829 78.2373 58.8213 78.2658 58.6787 78.3323C58.5361 78.3988 58.4316 78.4843 58.3555 78.5889C58.2795 78.6934 58.2415 78.8169 58.2415 78.9404C58.2415 79.102 58.2795 79.235 58.365 79.33C58.4506 79.4345 58.5552 79.501 58.6692 79.558C58.7833 79.6056 58.9449 79.6626 59.1255 79.7101C59.3346 79.7671 59.4867 79.8146 59.5818 79.8716C59.6768 79.9286 59.7339 80.0046 59.7339 80.1186C59.7339 80.2232 59.6863 80.3182 59.5913 80.3847C59.4962 80.4512 59.3726 80.4892 59.2111 80.4892C59.0399 80.4892 58.8974 80.4512 58.7928 80.3657C58.6882 80.2897 58.6312 80.1852 58.6122 80.0616H58.1749C58.1844 80.2137 58.232 80.3467 58.327 80.4702C58.4126 80.5842 58.5361 80.6792 58.6882 80.7458C58.8403 80.8123 59.0114 80.8408 59.2111 80.8408C59.3917 80.8408 59.5533 80.8123 59.6958 80.7458C59.8384 80.6792 59.943 80.5937 60.019 80.4892C60.0951 80.3752 60.1331 80.2517 60.1331 80.1186C60.1331 79.9666 60.0856 79.8431 60.0095 79.7481C59.924 79.6531 59.8289 79.577 59.7149 79.5295Z" fill="black"/>
<path d="M61.2358 77.6387H60.8175V78.2753H60.4943V78.6174H60.8175V80.1091C60.8175 80.3562 60.8745 80.5272 60.9886 80.6412C61.1027 80.7457 61.2833 80.8028 61.5114 80.8028H61.8917V80.4512H61.578C61.4449 80.4512 61.3593 80.4227 61.3023 80.3752C61.2548 80.3277 61.2263 80.2422 61.2263 80.1186V78.6269H61.8822V78.2848H61.2263V77.6387H61.2358Z" fill="black"/>
<path d="M62.8232 78.6839V78.2753H62.405V80.8028H62.8232V79.4345C62.8232 78.9214 63.0609 78.6649 63.5266 78.6649H63.6407V78.2278C63.4411 78.2278 63.2795 78.2658 63.1369 78.3513C63.0038 78.4273 62.8993 78.5413 62.8232 78.6839Z" fill="black"/>
<path d="M65.846 78.3893C65.6654 78.2848 65.4468 78.2373 65.2091 78.2373C64.962 78.2373 64.7434 78.2943 64.5532 78.3988C64.3631 78.5033 64.2205 78.6554 64.116 78.8549C64.0114 79.0545 63.9639 79.2825 63.9639 79.539C63.9639 79.7956 64.0209 80.0331 64.1255 80.2327C64.2301 80.4322 64.3821 80.5842 64.5723 80.6888C64.7624 80.7933 64.9715 80.8503 65.2186 80.8503C65.5228 80.8503 65.77 80.7743 65.9791 80.6222C66.1787 80.4702 66.3213 80.2707 66.3879 80.0331H65.9316C65.884 80.1757 65.7985 80.2897 65.6749 80.3752C65.5514 80.4607 65.3993 80.4987 65.2186 80.4987C65 80.4987 64.8099 80.4322 64.6578 80.2897C64.5057 80.1472 64.4202 79.9571 64.4012 79.7101H66.4164C66.4259 79.6246 66.4259 79.539 66.4259 79.4535C66.4259 79.2255 66.3783 79.0164 66.2738 78.8359C66.1787 78.6459 66.0361 78.4938 65.846 78.3893ZM64.4012 79.3585C64.4202 79.121 64.5057 78.9309 64.6578 78.7979C64.8099 78.6649 64.9905 78.5984 65.1996 78.5984C65.3517 78.5984 65.4848 78.6269 65.5989 78.6839C65.7224 78.7409 65.8175 78.8359 65.884 78.9499C65.9506 79.064 65.9886 79.2065 65.9886 79.3585H64.4012Z" fill="black"/>
<path d="M68.3745 79.5295C68.2605 79.482 68.1179 79.4345 67.9278 79.387C67.7852 79.349 67.6711 79.311 67.5855 79.2825C67.5 79.254 67.4335 79.2065 67.3859 79.1495C67.3289 79.0925 67.3099 79.0259 67.3099 78.9404C67.3099 78.8359 67.3574 78.7504 67.443 78.6839C67.5285 78.6174 67.6521 78.5889 67.8042 78.5889C67.9658 78.5889 68.0989 78.6269 68.1939 78.7124C68.289 78.7884 68.346 78.9024 68.3555 79.0259H68.7738C68.7643 78.7789 68.6692 78.5889 68.4981 78.4463C68.327 78.3038 68.0989 78.2373 67.8232 78.2373C67.6426 78.2373 67.481 78.2658 67.3384 78.3323C67.1958 78.3988 67.0913 78.4843 67.0152 78.5889C66.9392 78.6934 66.9011 78.8169 66.9011 78.9404C66.9011 79.102 66.9392 79.235 67.0247 79.33C67.1103 79.4345 67.2148 79.501 67.3289 79.558C67.443 79.6056 67.6046 79.6626 67.7852 79.7101C67.9943 79.7671 68.1464 79.8146 68.2414 79.8716C68.3365 79.9286 68.3935 80.0046 68.3935 80.1186C68.3935 80.2232 68.346 80.3182 68.2509 80.3847C68.1559 80.4512 68.0323 80.4892 67.8707 80.4892C67.6996 80.4892 67.557 80.4512 67.4525 80.3657C67.3479 80.2897 67.2909 80.1852 67.2719 80.0616H66.8346C66.8441 80.2137 66.8916 80.3467 66.9867 80.4702C67.0722 80.5842 67.1958 80.6792 67.3479 80.7458C67.5 80.8123 67.6711 80.8408 67.8707 80.8408C68.0513 80.8408 68.2129 80.8123 68.3555 80.7458C68.4981 80.6792 68.6027 80.5937 68.6787 80.4892C68.7547 80.3752 68.7928 80.2517 68.7928 80.1186C68.7928 79.9666 68.7452 79.8431 68.6692 79.7481C68.5932 79.6531 68.4886 79.577 68.3745 79.5295Z" fill="black"/>
<path d="M71.8441 78.2278C71.673 78.2278 71.5114 78.2658 71.3688 78.3323C71.2262 78.3988 71.1122 78.5033 71.0266 78.6364V78.2753H70.6084V80.8028H71.0266V79.406C71.0266 79.14 71.0932 78.9404 71.2262 78.7979C71.3593 78.6554 71.5304 78.5888 71.7586 78.5888C71.9772 78.5888 72.1483 78.6554 72.2719 78.7884C72.3954 78.9214 72.462 79.1114 72.462 79.368V80.7933H72.8802V79.3015C72.8802 78.9499 72.7852 78.6839 72.5951 78.4938C72.4049 78.3228 72.1578 78.2278 71.8441 78.2278Z" fill="black"/>
<path d="M75.5513 78.7409C75.4753 78.5984 75.3517 78.4748 75.1901 78.3798C75.0285 78.2848 74.8384 78.2373 74.6103 78.2373C74.3821 78.2373 74.1825 78.2943 74.0019 78.3988C73.8213 78.5033 73.6787 78.6554 73.5741 78.8549C73.4696 79.0545 73.4221 79.273 73.4221 79.539C73.4221 79.7956 73.4696 80.0236 73.5741 80.2232C73.6787 80.4227 73.8213 80.5747 74.0019 80.6888C74.1825 80.8028 74.3821 80.8503 74.6103 80.8503C74.8289 80.8503 75.019 80.8028 75.1806 80.7078C75.3422 80.6127 75.4658 80.4892 75.5513 80.3372V80.8028H75.9791V78.2753H75.5513V78.7409ZM75.4373 80.0331C75.3612 80.1757 75.2567 80.2897 75.1236 80.3562C74.9905 80.4322 74.8479 80.4702 74.6958 80.4702C74.5437 80.4702 74.3916 80.4322 74.2681 80.3562C74.135 80.2802 74.0399 80.1757 73.9544 80.0331C73.8783 79.8906 73.8403 79.7196 73.8403 79.5295C73.8403 79.3395 73.8783 79.1685 73.9544 79.0354C74.0304 78.8929 74.135 78.7884 74.2681 78.7124C74.4011 78.6364 74.5437 78.5984 74.6958 78.5984C74.8479 78.5984 75 78.6364 75.1236 78.7124C75.2567 78.7884 75.3612 78.8929 75.4373 79.0354C75.5133 79.178 75.5513 79.3395 75.5513 79.5295C75.5513 79.7291 75.5133 79.8906 75.4373 80.0331Z" fill="black"/>
<path d="M77.1958 77.6387H76.7776V78.2753H76.4544V78.6174H76.7776V80.1091C76.7776 80.3562 76.8346 80.5272 76.9487 80.6412C77.0627 80.7457 77.2434 80.8028 77.4715 80.8028H77.8517V80.4512H77.5475C77.4145 80.4512 77.3289 80.4227 77.2719 80.3752C77.2243 80.3277 77.1958 80.2422 77.1958 80.1186V78.6269H77.8517V78.2848H77.1958V77.6387Z" fill="black"/>
<path d="M80.1806 79.6627C80.1806 79.9287 80.1141 80.1282 79.9905 80.2708C79.8574 80.4133 79.6863 80.4798 79.4582 80.4798C79.2396 80.4798 79.0685 80.4133 78.9449 80.2803C78.8213 80.1473 78.7548 79.9572 78.7548 79.7102V78.2849H78.3365V79.7672C78.3365 80.0047 78.384 80.1948 78.4696 80.3658C78.5647 80.5273 78.6882 80.6508 78.8403 80.7364C78.9924 80.8219 79.173 80.8599 79.3726 80.8599C79.5437 80.8599 79.7053 80.8219 79.8479 80.7554C79.9905 80.6794 80.1046 80.5843 80.1806 80.4513V80.8219H80.5989V78.2944H80.1806V79.6627Z" fill="black"/>
<path d="M81.73 78.6839V78.2753H81.3118V80.8028H81.73V79.4345C81.73 78.9214 81.9677 78.6649 82.4335 78.6649H82.5475V78.2278C82.3479 78.2278 82.1863 78.2658 82.0437 78.3513C81.9107 78.4273 81.8061 78.5413 81.73 78.6839Z" fill="black"/>
<path d="M85.019 78.7409C84.943 78.5984 84.8194 78.4748 84.6578 78.3798C84.4962 78.2848 84.3061 78.2373 84.078 78.2373C83.8498 78.2373 83.6502 78.2943 83.4696 78.3988C83.289 78.5033 83.1464 78.6554 83.0418 78.8549C82.9373 79.0545 82.8897 79.273 82.8897 79.539C82.8897 79.7956 82.9373 80.0236 83.0418 80.2232C83.1464 80.4227 83.289 80.5747 83.4696 80.6888C83.6502 80.8028 83.8498 80.8503 84.078 80.8503C84.2966 80.8503 84.4867 80.8028 84.6483 80.7078C84.8099 80.6127 84.9335 80.4892 85.019 80.3372V80.8028H85.4468V78.2753H85.019V78.7409ZM84.905 80.0331C84.8289 80.1757 84.7243 80.2897 84.5913 80.3562C84.4582 80.4322 84.3156 80.4702 84.1635 80.4702C84.0114 80.4702 83.8593 80.4322 83.7357 80.3562C83.6027 80.2802 83.5076 80.1757 83.4221 80.0331C83.346 79.8906 83.308 79.7196 83.308 79.5295C83.308 79.3395 83.346 79.1685 83.4221 79.0354C83.4981 78.8929 83.6027 78.7884 83.7357 78.7124C83.8688 78.6364 84.0114 78.5984 84.1635 78.5984C84.3156 78.5984 84.4677 78.6364 84.5913 78.7124C84.7243 78.7884 84.8289 78.8929 84.905 79.0354C84.981 79.178 85.019 79.3395 85.019 79.5295C85.019 79.7291 84.981 79.8906 84.905 80.0331Z" fill="black"/>
<path d="M86.5685 77.3916H86.1502V80.8027H86.5685V77.3916Z" fill="black"/>
<path d="M89.0114 78.3893C88.8308 78.2848 88.6122 78.2373 88.3745 78.2373C88.1274 78.2373 87.9087 78.2943 87.7186 78.3988C87.5285 78.5033 87.3859 78.6554 87.2814 78.8549C87.1768 79.0545 87.1293 79.2825 87.1293 79.539C87.1293 79.7956 87.1863 80.0331 87.2909 80.2327C87.3954 80.4322 87.5475 80.5842 87.7376 80.6888C87.9278 80.7933 88.1369 80.8503 88.384 80.8503C88.6882 80.8503 88.9354 80.7743 89.1445 80.6222C89.3441 80.4702 89.4867 80.2707 89.5532 80.0331H89.097C89.0494 80.1757 88.9639 80.2897 88.8403 80.3752C88.7167 80.4607 88.5646 80.4987 88.384 80.4987C88.1654 80.4987 87.9753 80.4322 87.8232 80.2897C87.6711 80.1472 87.5855 79.9571 87.5665 79.7101H89.5817C89.5913 79.6246 89.5913 79.539 89.5913 79.4535C89.5913 79.2255 89.5437 79.0164 89.4392 78.8359C89.3441 78.6459 89.2015 78.4938 89.0114 78.3893ZM87.557 79.3585C87.576 79.121 87.6616 78.9309 87.8137 78.7979C87.9658 78.6649 88.1464 78.5984 88.3555 78.5984C88.5076 78.5984 88.6407 78.6269 88.7548 78.6839C88.8783 78.7409 88.9734 78.8359 89.0399 78.9499C89.1065 79.064 89.1445 79.2065 89.1445 79.3585H87.557Z" fill="black"/>
<path d="M91.5399 79.5295C91.4259 79.482 91.2833 79.4345 91.0932 79.387C90.9506 79.349 90.8365 79.311 90.751 79.2825C90.6654 79.254 90.5989 79.2065 90.5513 79.1495C90.4943 79.0925 90.4753 79.0259 90.4753 78.9404C90.4753 78.8359 90.5228 78.7504 90.6084 78.6839C90.6939 78.6174 90.8175 78.5889 90.9696 78.5889C91.1312 78.5889 91.2643 78.6269 91.3593 78.7124C91.4544 78.7884 91.5114 78.9024 91.5209 79.0259H91.9392C91.9297 78.7789 91.8346 78.5889 91.6635 78.4463C91.4924 78.3038 91.2643 78.2373 90.9886 78.2373C90.808 78.2373 90.6464 78.2658 90.5038 78.3323C90.3612 78.3988 90.2567 78.4843 90.1806 78.5889C90.1046 78.6934 90.0665 78.8169 90.0665 78.9404C90.0665 79.102 90.1046 79.235 90.1901 79.33C90.2757 79.4345 90.3802 79.501 90.4943 79.558C90.6084 79.6056 90.77 79.6626 90.9506 79.7101C91.1597 79.7671 91.3118 79.8146 91.4068 79.8716C91.5019 79.9286 91.5589 80.0046 91.5589 80.1186C91.5589 80.2232 91.5114 80.3182 91.4164 80.3847C91.3213 80.4512 91.1977 80.4892 91.0361 80.4892C90.865 80.4892 90.7224 80.4512 90.6179 80.3657C90.5133 80.2897 90.4563 80.1852 90.4373 80.0616H90C90.0095 80.2137 90.057 80.3467 90.1521 80.4702C90.2376 80.5842 90.3612 80.6792 90.5133 80.7458C90.6654 80.8123 90.8365 80.8408 91.0361 80.8408C91.2167 80.8408 91.3783 80.8123 91.5209 80.7458C91.6635 80.6792 91.7681 80.5937 91.8441 80.4892C91.9202 80.3752 91.9582 80.2517 91.9582 80.1186C91.9582 79.9666 91.9106 79.8431 91.8346 79.7481C91.749 79.6531 91.654 79.577 91.5399 79.5295Z" fill="black"/>
<path d="M1.53984 32.952L2.77558 33.9877L24.8193 7.54438L37.6995 22.9942V19.2505C37.6995 17.8918 38.6881 16.7611 39.9904 16.5425L27.0817 1.05469C26.5208 0.389571 25.6938 0 24.8193 0C23.9448 0 23.1178 0.389571 22.5569 1.05469L0.98851 26.9184C-0.522897 28.7333 -0.275749 31.4318 1.53984 32.952Z" fill="black"/>
<path d="M94.3251 27.9446L71.9107 1.05469C71.3498 0.389571 70.5228 0 69.6483 0C68.7738 0 67.9468 0.389571 67.386 1.05469L54.4962 16.5045H56.7396V23.0227L69.6483 7.54438L85.77 26.8899H70.9791C68.6122 26.8899 66.692 28.8093 66.692 31.1752V32.781H91.9962C93.1369 32.781 94.2015 32.1539 94.6958 31.1372C95.2187 30.0825 95.0666 28.8378 94.3251 27.9446Z" fill="black"/>
<path d="M39.0304 19.2505V24.5905V32.1063H43.6027V30.0825V20.8753V17.8347H41.0646H40.4373C39.6578 17.8347 39.0304 18.4713 39.0304 19.2505Z" fill="black"/>
<path d="M49.097 32.1063H49.5057V31.7073V22.5001V17.8347H44.9335V22.4716V31.6788V32.1063H45.3612H49.097Z" fill="black"/>
<path d="M55.4088 30.6906V24.619V17.8347H53.3936H50.8365V20.9038V30.1015V32.0968H53.9924C54.7719 32.1063 55.4088 31.4697 55.4088 30.6906Z" fill="black"/>
</g>
<defs>
<clipPath id="clip0_4_629">
<rect width="95" height="82" fill="white"/>
</clipPath>
</defs>
</svg>
