<svg width="300" height="258" viewBox="0 0 300 258" fill="none" xmlns="http://www.w3.org/2000/svg">
<path d="M68.6866 121.616V170.794H56.7296V141.287L45.7567 170.794H36.1255L25.0929 141.227V170.794H13.1061V121.616H27.2398L41.0156 155.667L54.6424 121.616H68.6866Z" fill="white"/>
<path d="M89.2311 131.212V141.168H105.243V150.405H89.2311V161.198H107.331V170.794H77.2742V121.616H107.331V131.212H89.2311ZM100.115 111.72L83.2974 118.806V110.524L100.144 102.393V111.72H100.115Z" fill="white"/>
<path d="M145.14 170.794L135.151 155.727L126.354 170.794H112.787L128.501 145.772L112.429 121.586H126.325L136.164 136.444L144.841 121.586H158.409L142.814 146.399L159.035 170.794H145.14Z" fill="white"/>
<path d="M177.015 121.616V170.794H165.058V121.616H177.015Z" fill="white"/>
<path d="M186.795 133.126C188.883 129.329 191.805 126.339 195.562 124.217C199.319 122.094 203.553 121.018 208.324 121.018C214.138 121.018 219.118 122.572 223.292 125.652C227.437 128.731 230.21 132.946 231.612 138.268H218.462C217.478 136.205 216.106 134.65 214.317 133.574C212.528 132.498 210.471 131.96 208.205 131.96C204.537 131.96 201.555 133.245 199.259 135.816C196.963 138.387 195.83 141.825 195.83 146.13C195.83 150.435 196.963 153.873 199.259 156.444C201.555 159.015 204.537 160.301 208.205 160.301C210.501 160.301 212.528 159.763 214.317 158.686C216.106 157.61 217.508 156.056 218.462 153.993H231.612C230.21 159.314 227.437 163.5 223.292 166.579C219.148 169.628 214.168 171.183 208.324 171.183C203.583 171.183 199.319 170.107 195.562 167.984C191.805 165.861 188.883 162.902 186.795 159.135C184.708 155.338 183.664 151.033 183.664 146.16C183.635 141.287 184.678 136.952 186.795 133.126Z" fill="white"/>
<path d="M249.443 168.074C245.596 165.921 242.555 162.932 240.289 159.075C238.022 155.219 236.889 150.884 236.889 146.07C236.889 141.257 238.022 136.952 240.289 133.096C242.555 129.269 245.596 126.279 249.443 124.127C253.289 121.975 257.523 120.898 262.115 120.898C266.707 120.898 270.941 121.975 274.788 124.127C278.634 126.279 281.646 129.269 283.882 133.096C286.089 136.922 287.192 141.257 287.192 146.07C287.192 150.884 286.059 155.219 283.823 159.075C281.586 162.932 278.545 165.921 274.728 168.074C270.912 170.226 266.677 171.302 262.086 171.302C257.494 171.302 253.289 170.226 249.443 168.074ZM271.508 156.444C273.864 153.843 275.026 150.375 275.026 146.07C275.026 141.736 273.864 138.268 271.508 135.667C269.152 133.066 266.021 131.78 262.115 131.78C258.15 131.78 254.989 133.066 252.633 135.637C250.278 138.208 249.115 141.676 249.115 146.07C249.115 150.405 250.278 153.873 252.633 156.474C254.989 159.075 258.15 160.361 262.115 160.361C266.051 160.361 269.182 159.045 271.508 156.444Z" fill="white"/>
<path d="M43.4309 225.354H23.3634L20.1431 234.891H6.42688L25.898 180.959H41.0753L60.5464 234.891H46.681L43.4309 225.354ZM40.0615 215.219L33.3823 195.458L26.7925 215.219H40.0615Z" fill="white"/>
<path d="M79.5404 224.756H96.7155V234.891H66.4503V180.959H79.5702V224.756H79.5404Z" fill="white"/>
<path d="M116.097 191.482V202.394H133.66V212.529H116.097V224.367H135.956V234.891H103.007V180.959H135.956V191.482H116.097Z" fill="white"/>
<path d="M171.886 234.891L160.705 214.532H157.544V234.891H144.424V180.959H166.43C170.664 180.959 174.272 181.706 177.283 183.201C180.265 184.696 182.502 186.729 183.992 189.3C185.483 191.901 186.229 194.771 186.229 197.94C186.229 201.527 185.215 204.726 183.187 207.536C181.16 210.346 178.178 212.349 174.272 213.515L186.676 234.891H171.886ZM157.544 205.234H165.654C168.07 205.234 169.859 204.636 171.051 203.47C172.244 202.304 172.841 200.63 172.841 198.478C172.841 196.415 172.244 194.83 171.051 193.635C169.859 192.469 168.04 191.871 165.654 191.871H157.544V205.234Z" fill="white"/>
<path d="M233.132 180.959V191.482H218.879V234.891H205.76V191.482H191.507V180.959H233.132Z" fill="white"/>
<path d="M273.208 225.354H253.14L249.92 234.891H236.203L255.645 180.959H270.822L290.293 234.891H276.428L273.208 225.354ZM269.838 215.219L263.159 195.458L256.569 215.219H269.838Z" fill="white"/>
<path d="M11.1083 251.991H6.72508L5.92 254.233H4.51855L8.15634 244.188H9.67705L13.3148 254.233H11.9134L11.1083 251.991ZM10.7207 250.915L8.90178 245.803L7.08289 250.915H10.7207Z" fill="white"/>
<path d="M17.3701 246.61C17.877 246.311 18.4733 246.161 19.1591 246.161C19.8748 246.161 20.5009 246.341 21.0675 246.67C21.634 246.998 22.0813 247.477 22.4093 248.105C22.7373 248.732 22.8864 249.42 22.8864 250.257C22.8864 251.064 22.7373 251.782 22.4093 252.41C22.0813 253.037 21.634 253.516 21.0675 253.874C20.5009 254.233 19.8449 254.383 19.1591 254.383C18.4733 254.383 17.877 254.233 17.3701 253.934C16.8632 253.635 16.4755 253.247 16.1773 252.798V258H14.8654V246.281H16.2072V247.746C16.4755 247.297 16.8632 246.909 17.3701 246.61ZM21.2464 248.673C21.0078 248.224 20.6798 247.895 20.2624 247.656C19.8449 247.417 19.3977 247.297 18.9206 247.297C18.4435 247.297 17.9962 247.417 17.5788 247.656C17.1613 247.895 16.8333 248.224 16.5948 248.673C16.3563 249.121 16.237 249.629 16.237 250.227C16.237 250.825 16.3563 251.363 16.5948 251.812C16.8333 252.26 17.1613 252.619 17.5788 252.828C17.9962 253.067 18.4435 253.187 18.9206 253.187C19.3977 253.187 19.8748 253.067 20.2624 252.828C20.6798 252.589 21.0078 252.26 21.2464 251.812C21.4849 251.363 21.6042 250.825 21.6042 250.227C21.6042 249.629 21.4849 249.121 21.2464 248.673Z" fill="white"/>
<path d="M27.1503 246.61C27.6572 246.311 28.2536 246.161 28.9394 246.161C29.655 246.161 30.2812 246.341 30.8477 246.67C31.4143 246.998 31.8616 247.477 32.1896 248.105C32.5176 248.732 32.6666 249.42 32.6666 250.257C32.6666 251.064 32.5176 251.782 32.1896 252.41C31.8616 253.037 31.4143 253.516 30.8477 253.874C30.2812 254.233 29.6252 254.383 28.9394 254.383C28.2536 254.383 27.6572 254.233 27.1503 253.934C26.6434 253.635 26.2558 253.247 25.9576 252.798V258H24.6456V246.281H25.9576V247.746C26.2558 247.297 26.6434 246.909 27.1503 246.61ZM30.9968 248.673C30.7583 248.224 30.4303 247.895 30.0128 247.656C29.5954 247.417 29.1481 247.297 28.671 247.297C28.194 247.297 27.7467 247.417 27.3292 247.656C26.9118 247.895 26.5838 248.224 26.3452 248.673C26.1067 249.121 25.9874 249.629 25.9874 250.227C25.9874 250.825 26.1067 251.363 26.3452 251.812C26.5838 252.26 26.9118 252.619 27.3292 252.828C27.7467 253.067 28.194 253.187 28.671 253.187C29.1481 253.187 29.6252 253.067 30.0128 252.828C30.4303 252.589 30.7583 252.26 30.9968 251.812C31.2354 251.363 31.3547 250.825 31.3547 250.227C31.3845 249.629 31.2652 249.121 30.9968 248.673Z" fill="white"/>
<path d="M38.3619 244.726C38.183 244.547 38.0935 244.338 38.0935 244.099C38.0935 243.859 38.183 243.62 38.3619 243.471C38.5408 243.291 38.7495 243.202 38.988 243.202C39.2266 243.202 39.4353 243.291 39.6142 243.471C39.7931 243.65 39.8528 243.859 39.8528 244.099C39.8528 244.338 39.7633 244.577 39.6142 244.726C39.4353 244.906 39.2266 244.995 38.988 244.995C38.7495 244.995 38.5408 244.906 38.3619 244.726ZM39.644 246.281V254.233H38.332V246.281H39.644Z" fill="white"/>
<path d="M48.0825 247.028C48.6789 247.626 48.9771 248.463 48.9771 249.569V254.263H47.6651V249.779C47.6651 248.971 47.4563 248.374 47.0687 247.955C46.6811 247.537 46.1444 247.327 45.4586 247.327C44.7727 247.327 44.2062 247.537 43.7887 247.985C43.3713 248.433 43.1626 249.061 43.1626 249.898V254.293H41.8506V246.341H43.1626V247.477C43.4309 247.058 43.7887 246.759 44.236 246.52C44.6833 246.311 45.1902 246.191 45.7269 246.191C46.7109 246.131 47.4862 246.43 48.0825 247.028Z" fill="white"/>
<path d="M54.3442 247.387H52.6744V254.233H51.3624V247.387H50.3486V246.311H51.3624V245.743C51.3624 244.846 51.601 244.218 52.0483 243.8C52.4955 243.381 53.241 243.172 54.2548 243.172V244.278C53.6882 244.278 53.2708 244.397 53.0322 244.607C52.7937 244.846 52.6744 245.205 52.6744 245.743V246.311H54.3442V247.387Z" fill="white"/>
<path d="M57.326 253.844C56.7296 253.516 56.2525 253.037 55.8947 252.41C55.5667 251.782 55.3878 251.064 55.3878 250.227C55.3878 249.42 55.5667 248.702 55.9245 248.075C56.2824 247.447 56.7594 246.968 57.3558 246.64C57.9522 246.311 58.638 246.131 59.3834 246.131C60.1289 246.131 60.8147 246.311 61.411 246.64C62.0074 246.968 62.4845 247.447 62.8423 248.075C63.2001 248.702 63.379 249.42 63.379 250.227C63.379 251.034 63.2001 251.782 62.8423 252.41C62.4845 253.037 61.9776 253.516 61.3812 253.844C60.7849 254.173 60.0692 254.353 59.3238 254.353C58.6082 254.353 57.9223 254.203 57.326 253.844ZM60.6656 252.888C61.083 252.679 61.411 252.32 61.6794 251.901C61.9478 251.453 62.067 250.915 62.067 250.287C62.067 249.659 61.9478 249.121 61.6794 248.673C61.4409 248.224 61.1129 247.895 60.6954 247.686C60.278 247.477 59.8605 247.357 59.3834 247.357C58.9063 247.357 58.4591 247.477 58.0714 247.686C57.6838 247.895 57.3558 248.224 57.1173 248.673C56.8787 249.121 56.7594 249.659 56.7594 250.287C56.7594 250.945 56.8787 251.483 57.1173 251.931C57.3558 252.38 57.6838 252.708 58.0714 252.918C58.4591 253.127 58.9063 253.247 59.3834 253.247C59.8009 253.217 60.2481 253.097 60.6656 252.888Z" fill="white"/>
<path d="M67.4343 246.52C67.8517 246.281 68.3885 246.131 69.0146 246.131V247.507H68.6568C67.1957 247.507 66.4503 248.314 66.4503 249.928V254.263H65.1383V246.311H66.4503V247.596C66.6888 247.118 67.0168 246.759 67.4343 246.52Z" fill="white"/>
<path d="M81.717 246.52C82.1941 246.789 82.5817 247.148 82.8501 247.686C83.1185 248.194 83.2675 248.822 83.2675 249.569V254.263H81.9556V249.779C81.9556 248.972 81.7468 248.374 81.3592 247.955C80.9716 247.537 80.4349 247.327 79.7789 247.327C79.093 247.327 78.5563 247.537 78.1389 247.985C77.7214 248.433 77.5425 249.061 77.5425 249.898V254.263H76.2305V249.779C76.2305 248.972 76.0218 248.374 75.6342 247.955C75.2465 247.537 74.7098 247.327 74.0538 247.327C73.368 247.327 72.8313 247.537 72.4138 247.985C71.9964 248.433 71.8175 249.061 71.8175 249.898V254.263H70.5055V246.311H71.8175V247.447C72.0858 247.028 72.4138 246.699 72.8611 246.49C73.3084 246.281 73.7855 246.161 74.3222 246.161C74.9782 246.161 75.5745 246.311 76.0814 246.61C76.5883 246.909 76.976 247.357 77.2145 247.925C77.4232 247.357 77.8109 246.939 78.3178 246.61C78.8247 246.311 79.3912 246.131 80.0174 246.131C80.6734 246.131 81.2399 246.281 81.717 246.52Z" fill="white"/>
<path d="M85.4443 248.105C85.7723 247.477 86.2196 247.028 86.7861 246.67C87.3526 246.341 88.0086 246.161 88.6944 246.161C89.3803 246.161 89.9766 246.311 90.5133 246.61C91.0202 246.909 91.4079 247.297 91.6464 247.746V246.281H92.9882V254.233H91.6464V252.768C91.3781 253.247 90.9904 253.605 90.4835 253.934C89.9766 254.233 89.3803 254.383 88.6944 254.383C87.9788 254.383 87.3526 254.203 86.7861 253.874C86.2196 253.546 85.7723 253.037 85.4443 252.41C85.1163 251.782 84.9672 251.064 84.9672 250.257C84.9374 249.42 85.1163 248.702 85.4443 248.105ZM91.2886 248.673C91.05 248.224 90.7221 247.895 90.3046 247.656C89.8872 247.417 89.4399 247.297 88.9628 247.297C88.4857 247.297 88.0086 247.417 87.621 247.656C87.2035 247.895 86.9054 248.224 86.6668 248.673C86.4283 249.121 86.309 249.629 86.309 250.227C86.309 250.825 86.4283 251.363 86.6668 251.812C86.9054 252.26 87.2334 252.619 87.621 252.828C88.0384 253.067 88.4857 253.187 88.9628 253.187C89.4399 253.187 89.917 253.067 90.3046 252.828C90.7221 252.589 91.05 252.26 91.2886 251.812C91.5271 251.363 91.6464 250.825 91.6464 250.227C91.6464 249.659 91.5271 249.121 91.2886 248.673Z" fill="white"/>
<path d="M96.8049 247.387V252.081C96.8049 252.469 96.8944 252.738 97.0435 252.888C97.1926 253.037 97.4907 253.127 97.9082 253.127H98.8624V254.233H97.6696C96.9242 254.233 96.3875 254.054 96.0297 253.725C95.6718 253.396 95.4929 252.828 95.4929 252.051V247.357H94.4791V246.281H95.4929V244.278H96.8049V246.281H98.8624V247.357H96.8049V247.387Z" fill="white"/>
<path d="M100.502 244.726C100.323 244.547 100.234 244.338 100.234 244.099C100.234 243.859 100.323 243.62 100.502 243.471C100.681 243.291 100.89 243.202 101.129 243.202C101.367 243.202 101.576 243.291 101.755 243.471C101.934 243.65 101.993 243.859 101.993 244.099C101.993 244.338 101.904 244.577 101.755 244.726C101.576 244.906 101.367 244.995 101.129 244.995C100.89 244.995 100.681 244.906 100.502 244.726ZM101.785 246.281V254.233H100.473V246.281H101.785Z" fill="white"/>
<path d="M106.973 253.007L109.418 246.281H110.819L107.718 254.233H106.198L103.097 246.281H104.528L106.973 253.007Z" fill="white"/>
<path d="M112.131 248.105C112.459 247.477 112.907 247.028 113.473 246.67C114.04 246.341 114.696 246.161 115.382 246.161C116.067 246.161 116.664 246.311 117.2 246.61C117.707 246.909 118.095 247.297 118.334 247.746V246.281H119.675V254.233H118.334V252.768C118.065 253.247 117.678 253.605 117.171 253.934C116.664 254.233 116.067 254.383 115.382 254.383C114.666 254.383 114.04 254.203 113.473 253.874C112.907 253.546 112.459 253.037 112.131 252.41C111.803 251.782 111.654 251.064 111.654 250.257C111.654 249.42 111.803 248.702 112.131 248.105ZM118.006 248.673C117.767 248.224 117.439 247.895 117.022 247.656C116.604 247.417 116.157 247.297 115.68 247.297C115.203 247.297 114.726 247.417 114.338 247.656C113.92 247.895 113.622 248.224 113.384 248.673C113.145 249.121 113.026 249.629 113.026 250.227C113.026 250.825 113.145 251.363 113.384 251.812C113.622 252.26 113.95 252.619 114.338 252.828C114.755 253.067 115.203 253.187 115.68 253.187C116.157 253.187 116.634 253.067 117.022 252.828C117.439 252.589 117.767 252.26 118.006 251.812C118.244 251.363 118.363 250.825 118.363 250.227C118.363 249.659 118.244 249.121 118.006 248.673Z" fill="white"/>
<path d="M132.974 250.765H126.653C126.712 251.543 126.981 252.17 127.458 252.589C127.935 253.037 128.531 253.247 129.217 253.247C129.784 253.247 130.261 253.127 130.648 252.858C131.036 252.589 131.304 252.23 131.453 251.782H132.885C132.676 252.559 132.258 253.157 131.602 253.635C130.976 254.114 130.171 254.353 129.217 254.353C128.472 254.353 127.786 254.173 127.189 253.844C126.593 253.516 126.146 253.037 125.788 252.41C125.46 251.782 125.281 251.064 125.281 250.227C125.281 249.42 125.43 248.673 125.758 248.075C126.086 247.447 126.533 246.968 127.13 246.64C127.726 246.311 128.412 246.131 129.187 246.131C129.933 246.131 130.618 246.311 131.185 246.61C131.751 246.939 132.199 247.387 132.527 247.955C132.855 248.523 133.004 249.181 133.004 249.898C133.004 250.197 133.004 250.466 132.974 250.765ZM131.304 248.374C131.095 248.015 130.768 247.746 130.41 247.537C130.022 247.357 129.605 247.267 129.157 247.267C128.501 247.267 127.935 247.477 127.458 247.895C126.981 248.314 126.712 248.912 126.653 249.659H131.662C131.662 249.181 131.543 248.762 131.304 248.374Z" fill="white"/>
<path d="M140.965 247.028C141.562 247.626 141.86 248.463 141.86 249.569V254.263H140.548V249.779C140.548 248.971 140.339 248.374 139.951 247.955C139.564 247.537 139.027 247.327 138.341 247.327C137.655 247.327 137.089 247.537 136.671 247.985C136.254 248.433 136.045 249.061 136.045 249.898V254.293H134.733V246.341H136.045V247.477C136.314 247.058 136.671 246.759 137.119 246.52C137.566 246.311 138.073 246.191 138.61 246.191C139.564 246.131 140.339 246.43 140.965 247.028Z" fill="white"/>
<path d="M147.853 248.105C148.181 247.477 148.628 247.028 149.195 246.67C149.761 246.341 150.417 246.161 151.133 246.161C151.759 246.161 152.326 246.311 152.862 246.58C153.399 246.879 153.787 247.238 154.085 247.716V243.501H155.427V254.233H154.085V252.738C153.817 253.217 153.429 253.605 152.922 253.904C152.415 254.203 151.819 254.353 151.133 254.353C150.417 254.353 149.791 254.173 149.225 253.844C148.658 253.486 148.211 253.007 147.883 252.38C147.555 251.752 147.406 251.034 147.406 250.227C147.376 249.42 147.525 248.702 147.853 248.105ZM153.727 248.673C153.489 248.224 153.161 247.895 152.743 247.656C152.326 247.417 151.879 247.297 151.401 247.297C150.924 247.297 150.447 247.417 150.06 247.656C149.642 247.895 149.344 248.224 149.105 248.673C148.867 249.121 148.748 249.629 148.748 250.227C148.748 250.825 148.867 251.363 149.105 251.812C149.344 252.26 149.672 252.619 150.06 252.828C150.477 253.067 150.924 253.187 151.401 253.187C151.879 253.187 152.356 253.067 152.743 252.828C153.161 252.589 153.489 252.26 153.727 251.812C153.966 251.363 154.085 250.825 154.085 250.227C154.085 249.659 153.966 249.121 153.727 248.673Z" fill="white"/>
<path d="M164.819 250.765H158.498C158.558 251.543 158.826 252.17 159.303 252.589C159.78 253.037 160.377 253.247 161.062 253.247C161.629 253.247 162.106 253.127 162.494 252.858C162.881 252.589 163.15 252.23 163.299 251.782H164.73C164.521 252.559 164.104 253.157 163.448 253.635C162.822 254.114 162.017 254.353 161.062 254.353C160.317 254.353 159.631 254.173 159.035 253.844C158.438 253.516 157.991 253.037 157.633 252.41C157.305 251.782 157.126 251.064 157.126 250.227C157.126 249.42 157.276 248.673 157.604 248.075C157.932 247.447 158.379 246.968 158.975 246.64C159.572 246.311 160.257 246.131 161.033 246.131C161.778 246.131 162.464 246.311 163.03 246.61C163.597 246.939 164.044 247.387 164.372 247.955C164.7 248.523 164.849 249.181 164.849 249.898C164.879 250.197 164.849 250.466 164.819 250.765ZM163.18 248.374C162.971 248.015 162.643 247.746 162.285 247.537C161.897 247.357 161.48 247.267 161.033 247.267C160.377 247.267 159.81 247.477 159.333 247.895C158.856 248.314 158.588 248.912 158.528 249.659H163.508C163.508 249.181 163.388 248.762 163.18 248.374Z" fill="white"/>
<path d="M167.772 254.054C167.294 253.845 166.907 253.546 166.638 253.187C166.37 252.828 166.191 252.38 166.161 251.901H167.533C167.563 252.29 167.772 252.619 168.1 252.858C168.428 253.097 168.875 253.247 169.412 253.247C169.918 253.247 170.306 253.127 170.604 252.918C170.902 252.708 171.052 252.41 171.052 252.081C171.052 251.722 170.902 251.483 170.574 251.303C170.276 251.124 169.799 250.975 169.143 250.795C168.547 250.646 168.07 250.496 167.712 250.317C167.354 250.167 167.026 249.928 166.758 249.599C166.489 249.27 166.37 248.882 166.37 248.374C166.37 247.955 166.489 247.596 166.728 247.267C166.966 246.939 167.324 246.67 167.742 246.46C168.189 246.251 168.696 246.161 169.262 246.161C170.127 246.161 170.843 246.371 171.38 246.819C171.916 247.267 172.214 247.865 172.244 248.643H170.932C170.902 248.224 170.724 247.895 170.425 247.656C170.127 247.417 169.71 247.267 169.203 247.267C168.726 247.267 168.368 247.357 168.07 247.566C167.801 247.776 167.652 248.045 167.652 248.374C167.652 248.643 167.742 248.852 167.891 249.031C168.07 249.211 168.278 249.33 168.517 249.45C168.785 249.54 169.113 249.659 169.59 249.779C170.157 249.928 170.634 250.078 170.992 250.227C171.35 250.377 171.648 250.616 171.916 250.915C172.185 251.214 172.304 251.602 172.304 252.081C172.304 252.529 172.185 252.918 171.946 253.247C171.707 253.605 171.38 253.874 170.932 254.054C170.485 254.263 169.978 254.353 169.412 254.353C168.815 254.353 168.249 254.263 167.772 254.054Z" fill="white"/>
<path d="M174.153 248.105C174.481 247.477 174.928 247.028 175.494 246.67C176.061 246.341 176.717 246.161 177.403 246.161C178.088 246.161 178.685 246.311 179.222 246.61C179.728 246.909 180.116 247.297 180.355 247.746V246.281H181.696V254.233H180.355V252.768C180.086 253.247 179.699 253.605 179.192 253.934C178.685 254.233 178.088 254.383 177.403 254.383C176.687 254.383 176.061 254.203 175.494 253.874C174.928 253.546 174.481 253.037 174.153 252.41C173.825 251.782 173.675 251.064 173.675 250.257C173.675 249.42 173.825 248.702 174.153 248.105ZM180.027 248.673C179.788 248.224 179.46 247.895 179.043 247.656C178.625 247.417 178.178 247.297 177.701 247.297C177.224 247.297 176.747 247.417 176.359 247.656C175.942 247.895 175.643 248.224 175.405 248.673C175.166 249.121 175.047 249.629 175.047 250.227C175.047 250.825 175.166 251.363 175.405 251.812C175.643 252.26 175.971 252.619 176.359 252.828C176.776 253.067 177.224 253.187 177.701 253.187C178.178 253.187 178.655 253.067 179.043 252.828C179.46 252.589 179.788 252.26 180.027 251.812C180.265 251.363 180.384 250.825 180.384 250.227C180.384 249.659 180.265 249.121 180.027 248.673Z" fill="white"/>
<path d="M185.096 254.054C184.619 253.845 184.231 253.546 183.963 253.187C183.694 252.828 183.515 252.38 183.485 251.901H184.857C184.887 252.29 185.096 252.619 185.424 252.858C185.752 253.097 186.199 253.247 186.736 253.247C187.243 253.247 187.63 253.127 187.928 252.918C188.227 252.708 188.376 252.41 188.376 252.081C188.376 251.722 188.227 251.483 187.899 251.303C187.6 251.124 187.123 250.975 186.467 250.795C185.871 250.646 185.394 250.496 185.036 250.317C184.678 250.167 184.35 249.928 184.082 249.599C183.813 249.27 183.694 248.882 183.694 248.374C183.694 247.955 183.813 247.596 184.052 247.267C184.291 246.939 184.648 246.67 185.066 246.46C185.513 246.251 186.02 246.161 186.587 246.161C187.451 246.161 188.167 246.371 188.704 246.819C189.24 247.267 189.539 247.865 189.568 248.643H188.256C188.227 248.224 188.048 247.895 187.749 247.656C187.451 247.417 187.034 247.267 186.527 247.267C186.05 247.267 185.692 247.357 185.394 247.566C185.125 247.776 184.976 248.045 184.976 248.374C184.976 248.643 185.066 248.852 185.215 249.031C185.394 249.211 185.603 249.33 185.841 249.45C186.109 249.54 186.437 249.659 186.915 249.779C187.481 249.928 187.958 250.078 188.316 250.227C188.674 250.377 188.972 250.616 189.24 250.915C189.509 251.214 189.628 251.602 189.628 252.081C189.628 252.529 189.509 252.918 189.27 253.247C189.032 253.605 188.704 253.874 188.256 254.054C187.809 254.263 187.302 254.353 186.736 254.353C186.139 254.353 185.573 254.263 185.096 254.054Z" fill="white"/>
<path d="M193.087 247.387V252.081C193.087 252.469 193.176 252.738 193.325 252.888C193.475 253.037 193.773 253.127 194.19 253.127H195.144V254.233H193.952C193.206 254.233 192.669 254.054 192.312 253.725C191.954 253.396 191.775 252.828 191.775 252.051V247.357H190.761V246.281H191.775V244.278H193.087V246.281H195.144V247.357H193.087V247.387Z" fill="white"/>
<path d="M199.05 246.52C199.468 246.281 200.005 246.131 200.631 246.131V247.507H200.273C198.812 247.507 198.067 248.314 198.067 249.928V254.263H196.755V246.311H198.067V247.596C198.305 247.118 198.633 246.759 199.05 246.52Z" fill="white"/>
<path d="M209.338 250.765H203.016C203.076 251.543 203.344 252.17 203.821 252.589C204.298 253.037 204.895 253.247 205.581 253.247C206.147 253.247 206.624 253.127 207.012 252.858C207.4 252.589 207.668 252.23 207.817 251.782H209.248C209.039 252.559 208.622 253.157 207.966 253.635C207.34 254.114 206.535 254.353 205.581 254.353C204.835 254.353 204.149 254.173 203.553 253.844C202.957 253.516 202.509 253.037 202.152 252.41C201.824 251.782 201.645 251.064 201.645 250.227C201.645 249.42 201.794 248.673 202.122 248.075C202.45 247.447 202.897 246.968 203.493 246.64C204.09 246.311 204.776 246.131 205.551 246.131C206.296 246.131 206.982 246.311 207.549 246.61C208.115 246.939 208.562 247.387 208.89 247.955C209.218 248.523 209.367 249.181 209.367 249.898C209.367 250.197 209.367 250.466 209.338 250.765ZM207.668 248.374C207.459 248.015 207.131 247.746 206.773 247.537C206.386 247.357 205.968 247.267 205.521 247.267C204.865 247.267 204.298 247.477 203.821 247.895C203.344 248.314 203.076 248.912 203.016 249.659H208.026C208.026 249.181 207.906 248.762 207.668 248.374Z" fill="white"/>
<path d="M212.29 254.054C211.813 253.845 211.425 253.546 211.157 253.187C210.888 252.828 210.709 252.38 210.679 251.901H212.051C212.081 252.29 212.29 252.619 212.618 252.858C212.946 253.097 213.393 253.247 213.93 253.247C214.436 253.247 214.824 253.127 215.122 252.918C215.42 252.708 215.57 252.41 215.57 252.081C215.57 251.722 215.42 251.483 215.092 251.303C214.794 251.124 214.317 250.975 213.661 250.795C213.065 250.646 212.588 250.496 212.23 250.317C211.872 250.167 211.544 249.928 211.276 249.599C211.007 249.27 210.888 248.882 210.888 248.374C210.888 247.955 211.007 247.596 211.246 247.267C211.485 246.939 211.842 246.67 212.26 246.46C212.707 246.251 213.214 246.161 213.78 246.161C214.645 246.161 215.361 246.371 215.898 246.819C216.434 247.267 216.732 247.865 216.762 248.643H215.45C215.42 248.224 215.242 247.895 214.943 247.656C214.645 247.417 214.228 247.267 213.721 247.267C213.244 247.267 212.886 247.357 212.588 247.566C212.319 247.776 212.17 248.045 212.17 248.374C212.17 248.643 212.26 248.852 212.409 249.031C212.588 249.211 212.797 249.33 213.035 249.45C213.303 249.54 213.631 249.659 214.109 249.779C214.675 249.928 215.152 250.078 215.51 250.227C215.868 250.377 216.166 250.616 216.434 250.915C216.703 251.214 216.822 251.602 216.822 252.081C216.822 252.529 216.703 252.918 216.464 253.247C216.226 253.605 215.898 253.874 215.45 254.054C215.003 254.263 214.496 254.353 213.93 254.353C213.303 254.353 212.767 254.263 212.29 254.054Z" fill="white"/>
<path d="M228.719 247.028C229.316 247.626 229.614 248.463 229.614 249.569V254.263H228.302V249.779C228.302 248.971 228.093 248.374 227.705 247.955C227.318 247.537 226.781 247.327 226.095 247.327C225.409 247.327 224.843 247.537 224.425 247.985C224.008 248.433 223.799 249.061 223.799 249.898V254.293H222.487V246.341H223.799V247.477C224.068 247.058 224.425 246.759 224.873 246.52C225.32 246.311 225.827 246.191 226.364 246.191C227.348 246.131 228.123 246.43 228.719 247.028Z" fill="white"/>
<path d="M231.761 248.105C232.089 247.477 232.536 247.028 233.102 246.67C233.669 246.341 234.325 246.161 235.011 246.161C235.697 246.161 236.293 246.311 236.83 246.61C237.337 246.909 237.724 247.297 237.963 247.746V246.281H239.305V254.233H237.963V252.768C237.694 253.247 237.307 253.605 236.8 253.934C236.293 254.233 235.697 254.383 235.011 254.383C234.295 254.383 233.669 254.203 233.102 253.874C232.536 253.546 232.089 253.037 231.761 252.41C231.433 251.782 231.284 251.064 231.284 250.257C231.284 249.42 231.433 248.702 231.761 248.105ZM237.635 248.673C237.396 248.224 237.068 247.895 236.651 247.656C236.233 247.417 235.786 247.297 235.309 247.297C234.832 247.297 234.355 247.417 233.967 247.656C233.55 247.895 233.252 248.224 233.013 248.673C232.774 249.121 232.655 249.629 232.655 250.227C232.655 250.825 232.774 251.363 233.013 251.812C233.252 252.26 233.58 252.619 233.967 252.828C234.385 253.067 234.832 253.187 235.309 253.187C235.786 253.187 236.263 253.067 236.651 252.828C237.068 252.589 237.396 252.26 237.635 251.812C237.873 251.363 237.993 250.825 237.993 250.227C237.993 249.659 237.873 249.121 237.635 248.673Z" fill="white"/>
<path d="M243.151 247.387V252.081C243.151 252.469 243.241 252.738 243.39 252.888C243.539 253.037 243.837 253.127 244.254 253.127H245.209V254.233H244.016C243.27 254.233 242.734 254.054 242.376 253.725C242.018 253.396 241.839 252.828 241.839 252.051V247.357H240.825V246.281H241.839V244.278H243.151V246.281H245.209V247.357H243.151V247.387Z" fill="white"/>
<path d="M253.856 246.281V254.233H252.544V253.067C252.305 253.486 251.947 253.785 251.5 254.024C251.053 254.263 250.546 254.353 250.009 254.353C249.383 254.353 248.846 254.233 248.339 253.964C247.862 253.695 247.445 253.336 247.177 252.798C246.878 252.29 246.759 251.662 246.759 250.915V246.251H248.071V250.735C248.071 251.513 248.28 252.111 248.667 252.529C249.055 252.948 249.592 253.157 250.278 253.157C250.993 253.157 251.53 252.948 251.947 252.499C252.365 252.051 252.544 251.423 252.544 250.586V246.221H253.856V246.281Z" fill="white"/>
<path d="M258.388 246.52C258.805 246.281 259.342 246.131 259.968 246.131V247.507H259.611C258.149 247.507 257.404 248.314 257.404 249.928V254.263H256.092V246.311H257.404V247.596C257.613 247.118 257.941 246.759 258.388 246.52Z" fill="white"/>
<path d="M261.459 248.105C261.787 247.477 262.235 247.028 262.801 246.67C263.368 246.341 264.024 246.161 264.709 246.161C265.395 246.161 265.992 246.311 266.528 246.61C267.035 246.909 267.423 247.297 267.661 247.746V246.281H269.003V254.233H267.661V252.768C267.393 253.247 267.005 253.605 266.498 253.934C265.992 254.233 265.395 254.383 264.709 254.383C263.994 254.383 263.368 254.203 262.801 253.874C262.235 253.546 261.787 253.037 261.459 252.41C261.131 251.782 260.982 251.064 260.982 250.257C260.982 249.42 261.131 248.702 261.459 248.105ZM267.333 248.673C267.095 248.224 266.767 247.895 266.349 247.656C265.932 247.417 265.485 247.297 265.008 247.297C264.531 247.297 264.053 247.417 263.666 247.656C263.248 247.895 262.95 248.224 262.712 248.673C262.473 249.121 262.354 249.629 262.354 250.227C262.354 250.825 262.473 251.363 262.712 251.812C262.95 252.26 263.278 252.619 263.666 252.828C264.083 253.067 264.531 253.187 265.008 253.187C265.485 253.187 265.962 253.067 266.349 252.828C266.767 252.589 267.095 252.26 267.333 251.812C267.572 251.363 267.691 250.825 267.691 250.227C267.691 249.659 267.572 249.121 267.333 248.673Z" fill="white"/>
<path d="M272.552 243.501V254.233H271.24V243.501H272.552Z" fill="white"/>
<path d="M281.974 250.765H275.653C275.712 251.543 275.981 252.17 276.458 252.589C276.935 253.037 277.531 253.247 278.217 253.247C278.784 253.247 279.261 253.127 279.648 252.858C280.036 252.589 280.304 252.23 280.453 251.782H281.885C281.676 252.559 281.258 253.157 280.602 253.635C279.976 254.114 279.171 254.353 278.217 254.353C277.472 254.353 276.786 254.173 276.189 253.844C275.593 253.516 275.146 253.037 274.788 252.41C274.46 251.782 274.281 251.064 274.281 250.227C274.281 249.42 274.43 248.673 274.758 248.075C275.086 247.447 275.533 246.968 276.13 246.64C276.726 246.311 277.412 246.131 278.187 246.131C278.933 246.131 279.618 246.311 280.185 246.61C280.751 246.939 281.199 247.387 281.527 247.955C281.855 248.523 282.004 249.181 282.004 249.898C282.034 250.197 282.004 250.466 281.974 250.765ZM280.334 248.374C280.125 248.015 279.797 247.746 279.439 247.537C279.052 247.357 278.634 247.267 278.187 247.267C277.531 247.267 276.965 247.477 276.488 247.895C276.01 248.314 275.742 248.912 275.682 249.659H280.692C280.662 249.181 280.543 248.762 280.334 248.374Z" fill="white"/>
<path d="M284.926 254.054C284.449 253.845 284.061 253.546 283.793 253.187C283.525 252.828 283.346 252.38 283.316 251.901H284.687C284.717 252.29 284.926 252.619 285.254 252.858C285.582 253.097 286.029 253.247 286.566 253.247C287.073 253.247 287.46 253.127 287.759 252.918C288.057 252.708 288.206 252.41 288.206 252.081C288.206 251.722 288.057 251.483 287.729 251.303C287.431 251.124 286.954 250.975 286.298 250.795C285.701 250.646 285.224 250.496 284.866 250.317C284.509 250.167 284.181 249.928 283.912 249.599C283.644 249.27 283.525 248.882 283.525 248.374C283.525 247.955 283.644 247.596 283.882 247.267C284.121 246.939 284.479 246.67 284.896 246.46C285.343 246.251 285.85 246.161 286.417 246.161C287.282 246.161 287.997 246.371 288.534 246.819C289.071 247.267 289.369 247.865 289.399 248.643H288.087C288.057 248.224 287.878 247.895 287.58 247.656C287.282 247.417 286.864 247.267 286.357 247.267C285.88 247.267 285.522 247.357 285.224 247.566C284.956 247.776 284.807 248.045 284.807 248.374C284.807 248.643 284.896 248.852 285.045 249.031C285.224 249.211 285.433 249.33 285.671 249.45C285.94 249.54 286.268 249.659 286.745 249.779C287.311 249.928 287.788 250.078 288.146 250.227C288.504 250.377 288.802 250.616 289.071 250.915C289.339 251.214 289.458 251.602 289.458 252.081C289.458 252.529 289.339 252.918 289.1 253.247C288.862 253.605 288.534 253.874 288.087 254.054C287.639 254.263 287.132 254.353 286.566 254.353C285.97 254.353 285.403 254.263 284.926 254.054Z" fill="white"/>
<path d="M9.70696 106.907L5.83064 103.678C0.135422 98.9249 -0.639844 90.4345 4.1012 84.6945L71.7282 3.34832C73.4874 1.22572 76.1114 0 78.8547 0C81.5979 0 84.192 1.22572 85.9513 3.34832L149.165 79.403L212.379 3.34832C214.109 1.22572 216.733 0 219.476 0C222.219 0 224.813 1.22572 226.572 3.34832L296.883 87.9532C299.209 90.7634 299.686 94.6797 298.076 97.9682C296.495 101.167 293.156 103.14 289.607 103.14H210.232V98.0579C210.232 90.6139 216.255 84.575 223.68 84.575H270.077L219.476 23.7372L156.262 99.7919C154.503 101.914 151.908 103.14 149.165 103.14C146.422 103.14 143.828 101.914 142.069 99.7919L78.8547 23.7372L9.70696 106.907Z" fill="white"/>
<path d="M139.862 103.11H121.345V60.5687C121.345 56.9513 124.267 54.0215 127.875 54.0215H139.862V103.11Z" fill="#036847"/>
<path d="M158.379 54.0215H139.862V103.08H158.379V54.0215Z" fill="white"/>
<path d="M170.366 103.11H158.379V54.0215H176.896V96.5631C176.896 100.181 173.974 103.11 170.366 103.11Z" fill="#CD1426"/>
</svg>
