<svg width="122" height="107" viewBox="0 0 122 107" fill="none" xmlns="http://www.w3.org/2000/svg">
<path d="M110.243 106.648H11.7568C5.25853 106.648 0 101.389 0 94.8912V11.7568C0 5.25853 5.25853 0 11.7568 0H110.243C116.731 0 122 5.25853 122 11.7568V94.8912C122 101.389 116.741 106.648 110.243 106.648Z" fill="#4F4F4F"/>
<path d="M32.8219 52.1201V69.1148H28.6791V58.918L24.8773 69.1148H21.5404L17.7178 58.8973V69.1148H13.5751V52.1201H18.4617L23.2347 63.8872L27.956 52.1201H32.8219Z" fill="white"/>
<path d="M39.94 55.4366V58.8769H45.4878V62.0692H39.94V65.7987H46.211V69.115H35.7972V52.1204H46.211V55.4366H39.94ZM43.7212 48.7111L37.8841 51.1596V48.2979L43.7212 45.4878V48.7111Z" fill="white"/>
<path d="M59.3109 69.1149L55.85 63.908L52.8023 69.1149H48.1016L53.5461 60.4677L47.9777 52.1099H52.792L56.2012 57.2444L59.2076 52.1099H63.9082L58.5051 60.6847L64.1252 69.1149H59.3109Z" fill="white"/>
<path d="M70.3548 52.1201V69.1148H66.212V52.1201H70.3548Z" fill="white"/>
<path d="M73.7434 56.1079C74.4666 54.7959 75.479 53.7628 76.7808 53.0293C78.0825 52.2957 79.5495 51.9238 81.2025 51.9238C83.217 51.9238 84.9423 52.461 86.3887 53.5251C87.8247 54.5892 88.7855 56.0459 89.2711 57.8849H84.715C84.3741 57.172 83.8989 56.6348 83.279 56.2629C82.6592 55.891 81.9463 55.705 81.1611 55.705C79.8904 55.705 78.8573 56.1492 78.0618 57.0377C77.2663 57.9262 76.8737 59.1143 76.8737 60.602C76.8737 62.0896 77.2663 63.2777 78.0618 64.1662C78.8573 65.0547 79.8904 65.4989 81.1611 65.4989C81.9566 65.4989 82.6592 65.3129 83.279 64.941C83.8989 64.5691 84.3844 64.0319 84.715 63.319H89.2607C88.7752 65.158 87.8144 66.6043 86.3783 67.6684C84.9423 68.7222 83.217 69.2594 81.1921 69.2594C79.5495 69.2594 78.0721 68.8875 76.7704 68.154C75.4687 67.4205 74.4563 66.3977 73.7331 65.096C73.0099 63.7839 72.6483 62.2963 72.6483 60.6123C72.6483 58.918 73.0202 57.42 73.7434 56.1079Z" fill="white"/>
<path d="M95.449 68.175C94.1163 67.4312 93.0625 66.3981 92.2774 65.0654C91.4922 63.7327 91.0996 62.2347 91.0996 60.5713C91.0996 58.908 91.4922 57.4204 92.2774 56.0877C93.0625 54.7653 94.1163 53.7322 95.449 52.9883C96.7817 52.2445 98.2487 51.8726 99.8397 51.8726C101.431 51.8726 102.898 52.2445 104.23 52.9883C105.563 53.7322 106.607 54.7653 107.381 56.0877C108.146 57.41 108.528 58.908 108.528 60.5713C108.528 62.2347 108.136 63.7327 107.361 65.0654C106.586 66.3981 105.532 67.4312 104.21 68.175C102.887 68.9189 101.42 69.2908 99.8294 69.2908C98.2384 69.2908 96.7817 68.9189 95.449 68.175ZM103.104 64.1562C103.921 63.2574 104.323 62.059 104.323 60.5713C104.323 59.0733 103.921 57.8749 103.104 56.9761C102.288 56.0773 101.203 55.6331 99.8501 55.6331C98.476 55.6331 97.3809 56.0773 96.5648 56.9658C95.7486 57.8543 95.3457 59.0527 95.3457 60.5713C95.3457 62.0694 95.7486 63.2678 96.5648 64.1666C97.3809 65.0654 98.476 65.5096 99.8501 65.5096C101.203 65.5096 102.288 65.055 103.104 64.1562Z" fill="white"/>
<path d="M24.0818 87.9691H17.1289L16.0132 91.2648H11.2609L17.9967 72.6274H23.2553L30.0015 91.2648H25.1975L24.0818 87.9691ZM22.9143 84.4669L20.6002 77.638L18.317 84.4669H22.9143Z" fill="white"/>
<path d="M36.5825 87.7625H42.5332V91.2648H32.0471V72.6274H36.5928V87.7625H36.5825Z" fill="white"/>
<path d="M49.2484 76.264V80.0348H55.3334V83.5371H49.2484V87.6282H56.1289V91.2648H44.713V72.6274H56.1289V76.264H49.2484Z" fill="white"/>
<path d="M68.5779 91.2648L64.7037 84.2293H63.6189V91.2648H59.0732V72.6274H66.6976C68.1646 72.6274 69.4147 72.8857 70.4581 73.4023C71.4912 73.9188 72.2661 74.6213 72.7826 75.5098C73.2992 76.4086 73.5574 77.4004 73.5574 78.4955C73.5574 79.7352 73.2062 80.8407 72.5037 81.8118C71.8012 82.7829 70.7681 83.4751 69.4147 83.878L73.7124 91.2648H68.5779ZM63.6189 81.0163H66.429C67.2658 81.0163 67.8857 80.8097 68.2989 80.4068C68.7122 80.0038 68.9188 79.4253 68.9188 78.6815C68.9188 77.9686 68.7122 77.4211 68.2989 77.0078C67.8857 76.6049 67.2555 76.3983 66.429 76.3983H63.6189V81.0163Z" fill="white"/>
<path d="M89.798 72.6274V76.264H84.8597V91.2648H80.314V76.264H75.3757V72.6274H89.798Z" fill="white"/>
<path d="M103.683 87.9691H96.7301L95.6144 91.2648H90.8621L97.6083 72.6274H102.867L109.613 91.2648H104.809L103.683 87.9691ZM102.516 84.4669L100.212 77.6484L97.9285 84.4772H102.516V84.4669Z" fill="white"/>
<path d="M12.3974 47.0373L11.0543 45.9215C9.08107 44.2789 8.81246 41.3448 10.4551 39.3613L33.886 11.2503C34.4956 10.5168 35.3944 10.0933 36.3449 10.0933C37.2953 10.0933 38.1941 10.5168 38.8037 11.2503L60.7056 37.5327L82.6075 11.2503C83.2171 10.5168 84.1159 10.0933 85.0663 10.0933C86.0168 10.0933 86.9156 10.5168 87.5251 11.2503L111.886 40.4874C112.692 41.4585 112.857 42.8119 112.299 43.9483C111.752 45.0537 110.594 45.7356 109.365 45.7356H81.8637V43.9896C81.8637 41.4172 83.9506 39.3303 86.523 39.3303H102.588L85.0663 18.3065L63.1644 44.5888C62.5549 45.3223 61.656 45.7459 60.7056 45.7459C59.7551 45.7459 58.8563 45.3223 58.2468 44.5888L36.3449 18.3065L12.3974 47.0373Z" fill="white"/>
<path d="M57.4823 45.7254H51.0667V31.0242C51.0667 29.7742 52.0791 28.7617 53.3292 28.7617H57.4823V45.7254Z" fill="#036847"/>
<path d="M63.8979 28.772H57.4823V45.7253H63.8979V28.772Z" fill="white"/>
<path d="M68.0509 45.7253H63.8978V28.772H70.3134V43.4731C70.3134 44.7129 69.301 45.7253 68.0509 45.7253Z" fill="#CD1426"/>
</svg>
