<svg width="139" height="50" viewBox="0 0 139 50" fill="none" xmlns="http://www.w3.org/2000/svg">
<g clip-path="url(#clip0_4_503)">
<path d="M2.25321 48.4899L4.06129 50.014L36.3147 11.1018L55.1606 33.8367V28.3277C55.1606 26.3283 56.607 24.6644 58.5125 24.3428L39.6249 1.55201C38.8043 0.573266 37.5943 0 36.3147 0C35.0352 0 33.8251 0.573266 33.0046 1.55201L1.44652 39.6113C-0.764903 42.2819 -0.403286 46.2528 2.25321 48.4899Z" fill="#4F4F4F"/>
<path d="M138.013 41.1214L105.217 1.55201C104.396 0.573266 103.186 0 101.906 0C100.627 0 99.4169 0.573266 98.5963 1.55201L79.7366 24.2869H83.0189V33.8786L101.906 11.1018L125.495 39.5694H103.854C100.39 39.5694 97.581 42.3937 97.581 45.8753V48.2383H134.605C136.274 48.2383 137.832 47.3154 138.555 45.8194C139.32 44.2673 139.097 42.4357 138.013 41.1214Z" fill="#4F4F4F"/>
<path d="M57.1077 28.3277V36.1857V47.2455H63.7976V44.2673V30.7187V26.2444H60.0841H59.1661C58.0256 26.2444 57.1077 27.1812 57.1077 28.3277Z" fill="#036847"/>
<path d="M71.8366 47.2455H72.4347V46.6583V33.1096V26.2444H65.7448V33.0677V46.6163V47.2455H66.3706H71.8366Z" fill="white"/>
<path d="M81.0718 45.1622V36.2276V26.2444H78.1232H74.3818V30.7606V44.2953V47.2315H78.9994C80.1399 47.2455 81.0718 46.3087 81.0718 45.1622Z" fill="#CD1426"/>
</g>
<defs>
<clipPath id="clip0_4_503">
<rect width="139" height="50" fill="white"/>
</clipPath>
</defs>
</svg>
