<?xml version="1.0" standalone="no"?>
<!DOCTYPE svg PUBLIC "-//W3C//DTD SVG 20010904//EN"
 "http://www.w3.org/TR/2001/REC-SVG-20010904/DTD/svg10.dtd">
<svg version="1.0" xmlns="http://www.w3.org/2000/svg"
 width="1000.000000pt" height="1000.000000pt" viewBox="0 0 1000.000000 1000.000000"
 preserveAspectRatio="xMidYMid meet">

<g transform="translate(0.000000,1000.000000) scale(0.100000,-0.100000)"
fill="#000000" stroke="none">
<path d="M815 9366 c-416 -65 -737 -388 -800 -806 -22 -143 -22 -6957 0 -7100
64 -422 383 -741 805 -805 143 -22 8217 -22 8360 0 422 64 741 383 805 805 22
143 22 6957 0 7100 -54 359 -296 649 -640 767 -164 56 87 53 -4355 52 -3222
-1 -4112 -4 -4175 -13z m2285 -783 c47 -25 117 -105 665 -763 l612 -735 -44
-11 c-55 -14 -92 -41 -118 -85 -18 -31 -20 -57 -25 -268 l-5 -233 -599 718
c-329 396 -601 720 -605 722 -4 1 -448 -526 -986 -1172 l-979 -1175 -75 64
c-134 111 -177 201 -169 350 3 63 11 95 31 136 17 34 386 485 1016 1240 915
1098 993 1188 1042 1212 75 38 166 38 239 0z m3991 0 c50 -26 126 -115 1072
-1248 627 -751 1028 -1239 1043 -1270 28 -59 32 -153 9 -209 -21 -49 -80 -113
-129 -139 l-41 -22 -1169 -3 -1168 -2 4 122 c3 107 7 130 29 178 31 67 76 120
135 161 97 67 59 63 826 69 l697 5 -709 850 c-390 467 -713 851 -717 852 -5 1
-278 -322 -608 -718 l-600 -721 -3 296 -2 296 -95 0 -95 0 601 723 c331 397
613 733 628 745 77 69 197 83 292 35z m-1851 -2198 l0 -695 -265 0 -265 0 0
695 0 695 265 0 265 0 0 -695z m-1652 -807 l-3 -132 -230 -97 c-126 -54 -236
-98 -242 -98 -10 -1 -13 28 -13 115 l0 115 233 114 c127 62 238 114 245 114
10 1 12 -29 10 -131z m3270 -419 c220 -56 389 -222 457 -446 l6 -23 -188 0
-188 0 -29 46 c-103 164 -377 181 -511 32 -144 -159 -133 -466 21 -607 67 -61
123 -81 228 -81 120 0 212 48 268 138 l20 32 188 0 188 0 -5 -22 c-3 -13 -23
-61 -45 -108 -77 -162 -240 -292 -423 -336 -95 -23 -287 -24 -375 -1 -123 32
-227 92 -315 181 -141 142 -197 285 -198 506 -1 151 16 230 76 350 74 151 227
281 389 332 133 41 294 44 436 7z m1480 15 c155 -32 321 -132 408 -247 54 -71
115 -197 135 -277 8 -32 14 -106 14 -180 -1 -101 -5 -139 -24 -200 -61 -198
-183 -346 -358 -434 -115 -58 -178 -71 -338 -71 -131 1 -146 3 -228 32 -121
43 -189 85 -277 174 -136 136 -200 296 -200 504 0 175 37 291 136 432 153 216
451 325 732 267z m-6628 -484 l194 -479 192 477 192 477 201 3 201 2 0 -700 0
-700 -170 0 -170 0 -1 413 0 412 -153 -410 -154 -410 -138 -3 -139 -2 -155
412 -155 413 -3 -412 -2 -413 -170 0 -170 0 0 700 0 700 203 0 202 0 195 -480z
m2080 340 l0 -140 -255 0 -255 0 0 -135 0 -135 225 0 225 0 0 -135 0 -135
-225 0 -225 0 0 -150 0 -150 255 0 255 0 0 -140 0 -140 -430 0 -430 0 0 700 0
700 430 0 430 0 0 -140z m677 -65 c75 -113 139 -205 142 -205 3 1 59 93 124
205 l119 205 195 0 195 0 -23 -37 c-13 -21 -113 -179 -222 -352 l-198 -314
214 -321 c117 -177 222 -333 231 -348 l18 -28 -199 0 -200 0 -139 210 c-76
115 -142 210 -145 210 -3 0 -61 -94 -129 -210 l-122 -210 -195 0 -195 0 23 38
c13 20 113 179 222 352 109 173 196 322 194 330 -2 9 -104 165 -226 348 l-221
332 200 0 200 0 137 -205z m1303 -495 l0 -700 -172 2 -173 3 -3 685 c-1 377 0
691 3 698 3 9 48 12 175 12 l170 0 0 -700z m-3852 -1007 c15 -43 534 -1476
539 -1490 4 -10 -39 -13 -195 -13 l-200 0 -44 133 -45 132 -284 0 -284 0 -45
-132 -45 -133 -197 0 -198 0 34 93 c18 50 143 395 276 765 l243 672 218 0 217
0 10 -27z m1082 -593 l0 -620 245 0 245 0 0 -145 0 -145 -435 0 -435 0 0 765
0 765 190 0 190 0 0 -620z m1600 470 l0 -150 -280 0 -280 0 0 -155 0 -155 250
0 250 0 0 -145 0 -145 -250 0 -250 0 0 -165 0 -165 280 0 280 0 0 -150 0 -150
-470 0 -470 0 0 765 0 765 470 0 470 0 0 -150z m1070 127 c135 -40 257 -133
309 -235 69 -136 67 -320 -6 -455 -38 -68 -126 -147 -206 -182 -36 -17 -67
-33 -67 -38 0 -4 77 -138 170 -298 94 -160 170 -293 170 -295 0 -3 -95 -3
-212 -2 l-212 3 -156 282 -155 283 -42 0 -43 0 0 -285 0 -285 -190 0 -190 0 0
766 0 765 388 -4 c321 -3 396 -6 442 -20z m1690 -127 l0 -150 -200 0 -200 0 0
-615 0 -615 -190 0 -190 0 0 615 0 615 -200 0 -200 0 0 150 0 150 590 0 590 0
0 -150z m1347 -605 c149 -412 272 -756 272 -763 1 -10 -42 -12 -195 -10 l-197
3 -46 132 -46 133 -282 0 -281 0 -28 -82 c-15 -46 -35 -107 -46 -135 l-19 -53
-196 0 c-181 0 -195 1 -191 18 4 14 512 1419 539 1490 l9 22 217 -2 218 -3
272 -750z m-6842 -1036 c0 -17 -6 -24 -20 -24 -23 0 -33 34 -13 46 20 13 33 5
33 -22z m415 12 c0 -10 -9 -21 -20 -24 -12 -3 -20 -14 -20 -26 0 -16 6 -21 26
-21 33 0 30 -33 -4 -38 -21 -3 -22 -8 -22 -98 0 -87 -1 -94 -20 -94 -19 0 -20
7 -20 95 0 78 -3 95 -15 95 -8 0 -15 9 -15 20 0 11 7 20 15 20 9 0 15 9 15 23
0 36 28 64 68 66 6 1 12 -7 12 -18z m1350 4 c25 -30 -10 -61 -38 -33 -7 7 -8
17 -1 30 12 22 23 23 39 3z m1528 -153 l3 -152 -26 0 c-17 0 -25 6 -25 17 0
15 -1 15 -18 0 -26 -24 -93 -22 -125 3 -83 65 -40 210 62 210 20 0 47 -7 59
-16 22 -15 22 -15 22 34 0 53 6 64 30 60 13 -3 15 -27 18 -156z m3322 3 c0
-148 -1 -155 -20 -155 -19 0 -20 7 -20 155 0 148 1 155 20 155 19 0 20 -7 20
-155z m-7417 8 c25 -71 48 -136 52 -145 6 -14 2 -18 -18 -18 -20 0 -27 6 -32
30 -6 29 -8 30 -70 30 -60 0 -63 -1 -75 -30 -8 -18 -20 -30 -31 -30 -11 0 -19
4 -19 8 0 5 20 64 45 133 25 68 48 130 50 137 2 6 15 12 28 12 22 0 29 -12 70
-127z m2427 97 c0 -27 3 -30 30 -30 23 0 30 -4 30 -20 0 -16 -7 -20 -30 -20
l-31 0 3 -72 c3 -71 4 -73 31 -76 19 -2 27 -9 27 -23 0 -15 -7 -19 -32 -19
-54 0 -68 22 -68 112 0 63 -3 78 -15 78 -8 0 -15 9 -15 20 0 11 7 20 15 20 10
0 15 10 15 30 0 23 4 30 20 30 16 0 20 -7 20 -30z m2738 -3 c3 -21 9 -27 28
-27 17 0 24 -5 24 -20 0 -15 -7 -20 -25 -20 -24 0 -25 -2 -25 -75 0 -73 1 -75
25 -75 18 0 25 -5 25 -20 0 -15 -7 -20 -28 -20 -53 0 -66 20 -70 107 -3 53 -9
81 -18 86 -19 11 -18 37 1 37 9 0 15 9 15 23 0 13 3 27 7 31 15 14 38 0 41
-27z m1420 0 c3 -23 8 -27 33 -27 40 0 37 -33 -4 -38 -27 -3 -27 -4 -27 -77 0
-73 0 -74 27 -77 17 -2 29 -10 31 -20 3 -14 -3 -18 -28 -18 -62 0 -70 11 -70
105 0 69 -3 85 -15 85 -8 0 -15 9 -15 20 0 11 7 20 15 20 10 0 15 10 15 31 0
24 4 30 18 27 10 -2 18 -14 20 -31z m-6448 -43 c0 -15 2 -15 25 0 51 34 126
14 154 -41 25 -50 4 -140 -38 -163 -29 -15 -93 -12 -119 6 l-22 15 0 -70 c0
-64 -2 -71 -20 -71 -19 0 -20 7 -20 170 0 163 1 170 20 170 12 0 20 -7 20 -16z
m280 0 c0 -14 2 -14 22 0 26 19 77 21 111 5 71 -32 76 -152 7 -206 -21 -17
-91 -16 -118 3 l-22 15 0 -70 c0 -64 -2 -71 -20 -71 -19 0 -20 7 -20 170 0
163 1 170 20 170 11 0 20 -7 20 -16z m390 -99 c0 -108 -1 -115 -20 -115 -19 0
-20 7 -20 115 0 108 1 115 20 115 19 0 20 -7 20 -115z m100 105 c0 -7 6 -7 19
0 36 19 90 12 116 -15 23 -22 25 -32 25 -115 0 -83 -1 -90 -20 -90 -18 0 -20
7 -20 78 0 92 -12 115 -60 115 -48 0 -60 -23 -60 -115 0 -71 -2 -78 -20 -78
-19 0 -20 7 -20 115 0 108 1 115 20 115 11 0 20 -5 20 -10z m536 -24 c29 -29
34 -41 34 -81 0 -40 -5 -52 -34 -81 -29 -29 -41 -34 -79 -34 -109 0 -156 123
-77 201 23 24 37 29 75 29 40 0 52 -5 81 -34z m124 24 c0 -7 6 -7 19 0 31 16
51 12 51 -10 0 -12 -7 -20 -17 -20 -39 0 -53 -29 -53 -112 0 -71 -2 -78 -20
-78 -19 0 -20 7 -20 115 0 108 1 115 20 115 11 0 20 -5 20 -10z m153 -2 c4
-10 7 -10 18 0 20 19 83 15 111 -8 25 -19 26 -19 43 0 28 31 95 27 126 -6 21
-22 24 -37 27 -115 4 -85 3 -89 -17 -89 -19 0 -21 6 -21 54 0 79 -10 115 -36
132 -20 13 -27 14 -51 2 -27 -13 -28 -17 -33 -98 -5 -79 -7 -85 -27 -88 -22
-3 -23 -1 -23 81 0 88 -4 98 -47 111 -17 5 -29 1 -48 -18 -22 -22 -25 -33 -25
-101 0 -68 -2 -75 -20 -75 -19 0 -20 7 -20 115 0 107 1 115 19 115 11 0 21 -6
24 -12z m535 -4 c20 -14 22 -14 22 0 0 9 9 16 20 16 19 0 20 -7 20 -115 0
-108 -1 -115 -20 -115 -11 0 -20 7 -20 16 0 14 -2 14 -22 0 -12 -9 -41 -16
-63 -16 -33 0 -47 6 -71 31 -25 26 -29 38 -29 85 0 50 3 59 33 85 37 33 93 39
130 13z m312 -99 c0 -108 -1 -115 -20 -115 -19 0 -20 7 -20 115 0 108 1 115
20 115 19 0 20 -7 20 -115z m109 34 c17 -44 31 -85 31 -90 0 -27 18 8 45 85
26 74 33 86 52 86 13 0 23 -1 23 -2 0 -2 -20 -52 -43 -113 -38 -96 -47 -110
-69 -113 -23 -3 -28 5 -66 105 -23 59 -42 111 -42 116 0 4 9 7 19 7 15 0 26
-19 50 -81z m339 65 c20 -14 22 -14 22 0 0 9 9 16 20 16 19 0 20 -7 20 -115 0
-108 -1 -115 -20 -115 -11 0 -20 7 -20 16 0 14 -2 14 -22 0 -49 -35 -129 -13
-157 41 -26 52 -3 139 43 162 32 15 89 13 114 -5z m391 2 c30 -16 51 -53 51
-91 0 -25 -1 -25 -90 -25 -99 0 -113 -11 -64 -49 33 -26 54 -26 87 -1 27 22
57 27 57 10 0 -6 -11 -22 -25 -35 -19 -20 -34 -25 -75 -25 -44 0 -56 5 -81 29
-25 26 -29 37 -29 86 0 49 4 60 29 86 34 33 92 39 140 15z m141 4 c0 -7 6 -7
19 0 22 11 71 13 96 4 30 -12 45 -60 45 -144 0 -73 -2 -80 -20 -80 -18 0 -20
7 -20 78 0 91 -12 115 -58 115 -53 0 -62 -16 -62 -109 0 -83 0 -84 -25 -84
l-25 0 0 115 0 115 25 0 c14 0 25 -5 25 -10z m781 -19 c21 -22 29 -39 29 -65
l0 -36 -89 0 c-85 0 -89 -1 -84 -21 13 -47 99 -63 121 -22 5 9 19 13 33 11
l24 -3 -32 -33 c-26 -27 -39 -32 -77 -32 -36 0 -52 6 -78 29 -30 27 -33 35
-33 86 0 51 3 59 33 86 46 41 111 41 153 0z m219 9 c11 -11 20 -27 20 -35 0
-21 -26 -19 -50 5 -24 24 -39 25 -65 6 -16 -12 -17 -16 -6 -30 7 -9 30 -20 50
-26 72 -19 95 -59 60 -103 -17 -23 -28 -27 -68 -27 -34 0 -53 6 -69 20 -27 26
-28 50 -2 50 11 0 20 -4 20 -10 0 -16 41 -32 67 -25 18 4 23 11 21 27 -2 16
-16 26 -52 38 -75 25 -95 64 -54 107 29 31 99 32 128 3z m228 4 c20 -14 22
-14 22 0 0 9 9 16 20 16 19 0 20 -7 20 -115 0 -108 -1 -115 -20 -115 -11 0
-20 7 -20 16 0 14 -2 14 -22 0 -12 -9 -41 -16 -63 -16 -58 0 -96 40 -103 109
-4 47 -2 53 31 86 28 28 43 35 74 35 21 0 49 -7 61 -16z m259 1 c11 -8 23 -24
26 -35 4 -16 0 -20 -19 -20 -13 0 -24 4 -24 10 0 15 -39 32 -61 25 -38 -12
-19 -46 39 -67 68 -25 85 -56 55 -96 -27 -37 -97 -43 -136 -12 -15 12 -27 28
-27 36 0 21 33 17 53 -6 20 -24 50 -26 72 -4 21 22 6 38 -51 54 -43 12 -74 40
-74 68 0 7 11 24 25 37 28 29 88 34 122 10z m273 5 c0 -7 6 -7 19 0 31 16 51
12 51 -10 0 -13 -7 -20 -19 -20 -39 0 -51 -26 -51 -111 0 -78 -1 -80 -22 -77
-22 3 -23 8 -26 102 -1 55 0 106 2 113 6 15 46 18 46 3z m280 -17 c20 -18 33
-41 37 -65 l6 -38 -92 0 c-96 0 -111 -9 -75 -44 27 -28 63 -31 94 -7 55 40 82
20 34 -24 -35 -33 -109 -35 -147 -4 -54 42 -54 146 0 189 39 31 105 27 143 -7z
m225 2 c32 -31 32 -45 0 -45 -14 0 -25 4 -25 10 0 15 -39 32 -61 25 -37 -12
-19 -47 32 -64 59 -20 79 -37 79 -67 0 -63 -105 -90 -155 -39 -14 13 -25 29
-25 35 0 17 36 11 55 -10 21 -24 44 -25 71 -6 17 13 17 16 4 29 -8 7 -37 22
-63 32 -50 18 -68 43 -59 77 13 51 105 65 147 23z m225 15 c0 -7 6 -7 19 0 36
19 90 12 116 -15 23 -22 25 -32 25 -115 0 -83 -1 -90 -20 -90 -18 0 -20 7 -20
78 0 92 -12 115 -60 115 -48 0 -60 -23 -60 -115 0 -71 -2 -78 -20 -78 -19 0
-20 7 -20 115 0 108 1 115 20 115 11 0 20 -5 20 -10z m375 -6 c23 -15 25 -15
25 0 0 9 8 16 20 16 19 0 20 -7 20 -115 0 -108 -1 -115 -20 -115 -11 0 -20 7
-20 16 0 14 -2 14 -22 0 -12 -9 -42 -16 -66 -16 -35 0 -49 6 -73 29 -25 25
-29 37 -29 84 0 47 4 60 29 86 23 25 37 31 70 31 23 0 53 -7 66 -16z m315 -69
c0 -78 2 -86 24 -100 29 -19 72 -11 86 15 6 10 10 53 10 94 0 69 2 76 20 76
19 0 20 -7 20 -115 0 -108 -1 -115 -20 -115 -11 0 -20 5 -20 10 0 7 -6 7 -19
0 -29 -15 -83 -12 -108 5 -27 19 -43 72 -43 146 0 60 4 69 32 69 16 0 18 -9
18 -85z m260 68 c0 -15 1 -15 18 0 26 23 52 22 52 -3 0 -13 -7 -20 -19 -20
-35 0 -51 -38 -51 -117 0 -66 -2 -73 -20 -73 -19 0 -20 7 -20 115 0 108 1 115
20 115 12 0 20 -7 20 -17z m268 1 c20 -14 22 -14 22 0 0 9 9 16 20 16 19 0 20
-7 20 -115 0 -108 -1 -115 -20 -115 -11 0 -20 7 -20 16 0 14 -2 14 -22 0 -27
-19 -97 -20 -118 -3 -32 25 -50 62 -50 105 0 37 6 50 34 78 27 27 42 34 73 34
21 0 49 -7 61 -16z m388 -2 c28 -22 44 -54 44 -86 0 -26 0 -26 -90 -26 -56 0
-90 -4 -90 -10 0 -18 48 -60 68 -60 11 0 31 9 46 21 14 11 36 19 48 17 22 -3
22 -4 -9 -36 -27 -27 -38 -32 -80 -32 -73 1 -113 42 -113 117 1 46 19 81 51
99 34 19 100 17 125 -4z m231 -4 c13 -12 23 -27 23 -35 0 -18 -39 -17 -46 2
-8 20 -40 28 -64 15 -33 -18 -23 -37 28 -56 62 -23 82 -41 82 -75 0 -74 -154
-82 -173 -9 -7 27 26 27 54 -1 23 -23 57 -22 73 4 13 21 1 31 -53 46 -68 20
-92 70 -51 111 28 28 96 27 127 -2z"/>
<path d="M8100 4870 c-69 -15 -146 -57 -184 -102 -73 -85 -101 -182 -94 -329
4 -81 10 -107 35 -162 53 -112 135 -175 258 -198 167 -31 324 48 392 198 55
120 54 292 -4 409 -34 70 -116 146 -180 168 -60 20 -165 28 -223 16z"/>
<path d="M1597 2797 c-48 -144 -87 -266 -87 -270 0 -4 81 -7 180 -7 99 0 180
3 180 7 0 12 -173 517 -179 525 -4 4 -46 -111 -94 -255z"/>
<path d="M5220 2990 l0 -192 148 4 c166 3 209 17 248 75 41 61 41 165 0 225
-39 58 -82 72 -248 76 l-148 4 0 -192z"/>
<path d="M8122 2791 l-90 -271 183 0 184 0 -90 267 c-50 147 -92 269 -94 271
-1 2 -44 -119 -93 -267z"/>
<path d="M5020 1603 c-35 -13 -50 -37 -50 -78 0 -50 25 -78 72 -78 39 0 68 33
68 78 0 52 -48 93 -90 78z"/>
<path d="M972 1582 c-12 -32 -22 -62 -22 -66 0 -3 20 -6 45 -6 25 0 45 1 45 3
0 1 -11 31 -23 65 l-24 64 -21 -60z"/>
<path d="M1255 1600 c-65 -26 -69 -124 -6 -150 33 -13 75 0 90 29 36 66 -21
147 -84 121z"/>
<path d="M1529 1598 c-59 -20 -62 -119 -5 -146 47 -23 106 17 106 73 0 52 -52
90 -101 73z"/>
<path d="M2398 1598 c-57 -20 -57 -124 1 -148 53 -22 101 15 101 78 0 55 -50
89 -102 70z"/>
<path d="M3239 1598 c-25 -8 -49 -44 -49 -73 0 -29 23 -64 49 -75 68 -28 128
51 91 120 -13 25 -59 39 -91 28z"/>
<path d="M3999 1598 c-25 -8 -49 -44 -49 -73 0 -54 57 -95 102 -74 25 11 48
46 48 74 0 52 -52 90 -101 73z"/>
<path d="M4367 1590 c-46 -36 -36 -50 38 -50 57 0 65 2 65 19 0 43 -63 62
-103 31z"/>
<path d="M5280 1597 c-14 -7 -26 -23 -28 -35 -3 -21 0 -22 62 -22 65 0 77 7
58 36 -8 12 -46 34 -59 34 -4 0 -19 -6 -33 -13z"/>
<path d="M5759 1598 c-25 -8 -49 -44 -49 -73 0 -29 23 -64 49 -75 68 -28 128
51 91 120 -13 25 -59 39 -91 28z"/>
<path d="M6537 1590 c-46 -36 -36 -50 38 -50 57 0 65 2 65 19 0 43 -63 62
-103 31z"/>
<path d="M7393 1600 c-43 -18 -58 -90 -25 -128 28 -34 65 -37 98 -9 66 57 7
169 -73 137z"/>
<path d="M8239 1598 c-25 -8 -49 -44 -49 -73 0 -29 23 -64 49 -75 61 -25 112
29 94 99 -10 42 -52 64 -94 49z"/>
<path d="M8613 1600 c-19 -8 -43 -38 -43 -54 0 -3 32 -6 70 -6 39 0 70 4 70 9
0 15 -34 49 -55 54 -11 3 -30 2 -42 -3z"/>
</g>
</svg>
